<svg width="42" height="61" viewBox="0 0 42 61" fill="none" xmlns="http://www.w3.org/2000/svg">
<path d="M32.7065 31.1484C32.7065 31.1484 27.9025 24.5758 27.0944 16.6971C26.2863 8.81826 27.1615 2.55564 23.054 1.54553C18.9461 0.535434 14.1651 4.91281 15.5793 14.9463C16.9934 24.9799 20.1696 30.8756 20.1696 30.8756" stroke="#15B6FF" stroke-width="1.5" stroke-linecap="round"/>
<path d="M16.32 21.0069C16.32 21.0069 12.6162 19.1213 8.44121 21.7475C4.26626 24.3738 4.46828 29.0877 6.35354 32.5895C8.23919 36.0909 12.4659 38.5152 12.4659 38.5152" stroke="#15B6FF" stroke-width="1.5" stroke-linecap="round"/>
<path d="M13.862 26.0542C13.862 26.0542 16.2329 27.6062 16.2329 30C16.2329 31.0526 17.1318 31.3494 16.32 33.2538" stroke="#15B6FF" stroke-width="1.5" stroke-linecap="round"/>
<path d="M4.53535 29.0386C4.53535 29.0386 0.0909102 30.502 1.16849 36.0236C2.31354 41.8935 7.36364 41.6802 9.31636 40.8721C11.2695 40.064 10.8154 37.7614 10.8154 37.7614" stroke="#15B6FF" stroke-width="1.5" stroke-linecap="round"/>
<path d="M6.9596 41.4202C6.9596 41.4202 7.31879 46.4905 12.4659 50.8388C15.3257 53.2545 20.7644 53.3572 20.7644 53.3572" stroke="#15B6FF" stroke-width="1.5" stroke-linecap="round"/>
<path d="M18.8115 46.6637C18.8115 46.6637 17.7339 52.2528 22.5154 54.1384C27.2964 56.0237 30.4616 53.8015 32.1448 52.4548C33.8285 51.1081 37.1283 45.0475 36.5893 40.1316C36.0507 35.2156 34.2325 30.3671 28.7105 29.2899C23.1885 28.2124 20.2257 30.8386 17.5319 32.6568C14.8386 34.475 11.3368 36.6297 12.8184 40.6701C14.2996 44.7105 19.8216 44.2394 23.256 42.9598C26.6903 41.6802 29.7206 42.9598 29.7206 42.9598" stroke="#15B6FF" stroke-width="1.5" stroke-linecap="round"/>
<path d="M24.0161 54.8656C24.0161 54.8656 23.8212 57.1639 25.4098 58.6425C27.5508 60.6353 31.4876 60.8845 35.4795 57.852C42.9246 52.1963 42 42.9717 39.027 41.5816C37.078 40.6702 36.646 41.2915 36.646 41.2915" stroke="#15B6FF" stroke-width="1.5" stroke-linecap="round"/>
</svg>
