<svg width="39" height="58" viewBox="0 0 39 58" fill="none" xmlns="http://www.w3.org/2000/svg">
<path d="M17.5381 21.0667C17.5381 21.0667 13.3756 17.45 12.6819 11.0333C11.9881 4.61667 15.2256 1.46667 19.2725 1.46667C23.3194 1.46667 23.2037 8.46667 25.1694 13.3667C27.135 18.2667 31.4131 21.8833 32.5694 26.6667C33.7256 31.45 32.5694 35.1833 30.6037 38.6833" stroke="#15B6FF" stroke-width="1.5" stroke-linecap="round" stroke-linejoin="round"/>
<path d="M15.6502 18.8628C15.6502 18.8628 2.96936 22.6997 2.96936 28.2997C2.96936 33.8997 6.94316 34.4831 12.5875 34.4831C18.2319 34.4831 24.4756 32.6164 24.4756 28.0664C24.4756 23.5164 20.0819 21.8831 10.8319 24.2164" stroke="#15B6FF" stroke-width="1.5" stroke-linecap="round" stroke-linejoin="round"/>
<path d="M3.98962 32.1127C3.98962 32.1127 1.35059 33.3167 1.46622 37.2833C1.58184 41.25 4.58809 45.2167 13.7225 45.2167C22.8568 45.2167 25.4006 42.3 25.4006 37.6333C25.4006 32.9667 21.1521 32.7333 21.1521 32.7333" stroke="#15B6FF" stroke-width="1.5" stroke-linecap="round" stroke-linejoin="round"/>
<path d="M5.16717 43.3792C5.16717 43.3792 3.66312 44.9836 4.70374 48.6003C5.74437 52.217 8.40374 54.317 14.7631 54.317C21.1225 54.317 25.4006 51.167 25.9787 47.667C26.5569 44.167 23.9095 42.3283 23.9095 42.3283" stroke="#15B6FF" stroke-width="1.5" stroke-linecap="round" stroke-linejoin="round"/>
<path d="M15.9193 54.3166C15.9193 54.3166 21.7006 58.5166 29.3318 51.8666C36.9631 45.2166 32.0439 35.6266 32.0439 35.6266" stroke="#15B6FF" stroke-width="1.5" stroke-linecap="round" stroke-linejoin="round"/>
<path d="M24.7781 55.2601C24.7781 55.2601 26.1814 57.3946 29.0137 56.6526C30.7129 56.2083 33.0365 55.4318 35.5738 50.5673C37.2675 47.3202 37.5755 44.621 37.3267 42.9625C36.7069 38.8427 33.8246 39.2982 33.8246 39.2982" stroke="#15B6FF" stroke-width="1.5" stroke-linecap="round" stroke-linejoin="round"/>
</svg>
