<svg width="51" height="56" viewBox="0 0 51 56" fill="none" xmlns="http://www.w3.org/2000/svg">
<path d="M26.6568 27.9018C26.6568 27.9018 24.4727 30.5609 21.5289 35.7768C18.5851 40.9927 19.0599 44.2655 20.2944 45.7995C21.5289 47.3336 22.5735 47.0268 22.5735 47.0268" stroke="#15B6FF" stroke-width="1.5" stroke-linecap="round" stroke-linejoin="round"/>
<path d="M28.556 37.1064C28.556 37.1064 22.4044 44.756 22.3835 48.7655C22.3577 53.7768 25.4223 54.6973 27.7014 54.6973C31.2149 54.6973 32.9242 51.3427 32.9242 51.3427" stroke="#15B6FF" stroke-width="1.5" stroke-linecap="round" stroke-linejoin="round"/>
<path d="M22.2886 30.52C22.2886 30.52 20.4843 34.0791 19.0219 36.1859C16.453 39.8869 12.6595 41.1563 10.9502 39.277C9.24088 37.3976 12.3176 31.7881 15.2614 26.5722C18.2052 21.3563 21.3389 19.72 25.0424 19.72C28.7459 19.72 35.3932 20.1291 40.9959 24.9359C46.5986 29.7427 48.213 36.3904 46.5037 42.3222C44.7944 48.2541 40.4262 52.0381 35.868 52.0381C31.3099 52.0381 29.9804 48.5609 29.9804 48.5609" stroke="#15B6FF" stroke-width="1.5" stroke-linecap="round" stroke-linejoin="round"/>
<path d="M20.4843 29.845C20.4843 29.845 22.5187 30.5789 23.4281 30.8677L24.3374 31.1565" stroke="#15B6FF" stroke-width="1.5" stroke-linecap="round" stroke-linejoin="round"/>
<path d="M10.5868 36.6172L3.96116 43.5496L2.6317 49.9928C2.6317 49.9928 4.62588 48.8678 5.10069 49.9928C5.5755 51.1178 4.62588 52.9587 4.62588 52.9587C4.62588 52.9587 9.27899 50.811 11.1782 49.686C13.0774 48.561 13.6472 48.0496 13.6472 48.0496L19.9648 39.1985" stroke="#15B6FF" stroke-width="1.5" stroke-linecap="round" stroke-linejoin="round"/>
<path d="M2.63159 49.9927C2.63159 49.9927 0.396579 52.6518 1.49205 53.6745C2.66577 54.7705 4.62577 52.9586 4.62577 52.9586" stroke="#15B6FF" stroke-width="1.5" stroke-linecap="round" stroke-linejoin="round"/>
<path d="M25.8971 19.72C25.8971 19.72 38.8118 4.68591 40.806 2.53818C42.8002 0.390456 44.7944 0.697274 47.7382 4.48136C50.682 8.26546 50.3971 9.49273 48.3079 11.7427C46.2188 13.9927 37.1698 22.3496 37.1698 22.3496" stroke="#15B6FF" stroke-width="1.5" stroke-linecap="round" stroke-linejoin="round"/>
<path d="M36.506 7.42711C36.506 7.42711 39.0016 6.93579 41.7555 10.3108C44.5094 13.6858 44.4326 15.5488 44.4326 15.5488" stroke="#15B6FF" stroke-width="1.5" stroke-linecap="round" stroke-linejoin="round"/>
<path d="M38.3459 5.31452C38.3459 5.31452 41.5658 4.68575 44.0348 8.16302C46.5038 11.6403 46.0879 13.9615 46.0879 13.9615" stroke="#15B6FF" stroke-width="1.5" stroke-linecap="round" stroke-linejoin="round"/>
<path d="M37.7862 51.67C37.7862 51.67 37.5773 54.6973 39.6664 54.6973C41.7555 54.6973 44.4768 53.3678 47.152 49.0723C49.8273 44.7769 49.9222 41.095 49.1625 39.4587C48.4028 37.8223 47.152 39.0496 47.152 39.0496" stroke="#15B6FF" stroke-width="1.5" stroke-linecap="round" stroke-linejoin="round"/>
<path d="M20.4843 20.8184C20.4843 20.8184 18.8654 18.9387 19.1503 15.4925C19.4352 12.0467 21.9611 9.1745 25.4724 10.1035C27.7918 10.7172 28.9541 16.1667 28.9541 16.1667" stroke="#15B6FF" stroke-width="1.5" stroke-linecap="round" stroke-linejoin="round"/>
<path d="M4.38689 43.182C6.38829 42.4416 8.76004 43.0331 10.2555 44.6457" stroke="#15B6FF" stroke-width="1.5" stroke-linecap="round" stroke-linejoin="round"/>
</svg>
