<svg xmlns="http://www.w3.org/2000/svg" xmlns:xlink="http://www.w3.org/1999/xlink" width="20" height="20" viewBox="0 0 20 20">
    <defs>
        <path id="prefix__a" d="M8.84 12.004c.189 0 .373.05.537.143l2.758 1.594-.623-3.164a1.072 1.072 0 01.333-1l2.326-2.1-3.17-.418a1.073 1.073 0 01-.83-.609L8.84 3.603 7.51 6.448c-.154.332-.467.56-.83.609l-3.17.418 2.326 2.101c.28.252.406.631.333 1l-.623 3.164 2.758-1.595c.163-.093.348-.142.535-.141m4.802 4.917a1.07 1.07 0 01-.537-.143L8.84 14.312l-4.267 2.465a1.071 1.071 0 01-1.587-1.135l.964-4.883L.353 7.51a1.071 1.071 0 01.578-1.857L5.82 5.01 7.869.618a1.072 1.072 0 011.941 0l2.053 4.39 4.887.644a1.071 1.071 0 01.578 1.857l-3.595 3.248.961 4.883a1.072 1.072 0 01-1.052 1.281"/>
        <path id="prefix__c" d="M6.497 16.92c-.511 0-.95-.361-1.05-.863l-1.078-5.48a1.071 1.071 0 01.333-1l2.326-2.1-3.17-.418a1.069 1.069 0 01-.83-.609L.727 1.525A1.072 1.072 0 012.668.62l2.053 4.39 4.886.643a1.072 1.072 0 01.578 1.857L6.59 10.757l.963 4.884a1.072 1.072 0 01-1.055 1.28"/>
    </defs>
    <g fill="none" fill-rule="evenodd">
        <g opacity=".5" transform="translate(1.429 1.429)">
            <mask id="prefix__b" fill="#fff">
                <use xlink:href="#prefix__a"/>
            </mask>
            <use fill="#15B6FF" fill-opacity=".5" xlink:href="#prefix__a"/>
            <g fill="#15B6FF" mask="url(#prefix__b)">
                <path d="M0 0H20V20H0z" transform="translate(-1.429 -1.429)"/>
            </g>
        </g>
        <g transform="translate(8.571 1.429)">
            <mask id="prefix__d" fill="#fff">
                <use xlink:href="#prefix__c"/>
            </mask>
            <use fill="#15B6FF" xlink:href="#prefix__c"/>
            <g fill="#15B6FF" mask="url(#prefix__d)">
                <path d="M0 0H20V20H0z" transform="translate(-8.571 -1.429)"/>
            </g>
        </g>
    </g>
</svg>
