<svg xmlns="http://www.w3.org/2000/svg" xmlns:xlink="http://www.w3.org/1999/xlink" width="28" height="28" viewBox="0 0 28 28">
    <defs>
        <path id="prefix__a" d="M14.5 26C7.6 26 2 20.4 2 13.5S7.6 1 14.5 1c1.5 0 3 .3 4.4.8.8.3 1.2 1.2.9 1.9-.3.8-1.2 1.2-1.9.9-1.1-.4-2.2-.6-3.4-.6C9.2 4 5 8.3 5 13.5c0 5.3 4.3 9.5 9.5 9.5 5.3 0 9.5-4.3 9.5-9.5v-.1c0-.1-.1-.3-.1-.6-.1-.8.4-1.6 1.2-1.7.8-.1 1.6.4 1.7 1.2v.1c.1.3.1.6.1 1 .2 7-5.4 12.6-12.4 12.6"/>
        <path id="prefix__c" d="M25.9 4c.6.6.6 1.5 0 2.1l-9.851 9.659c-.063.122-.145.238-.249.341-.3.3-.7.5-1.1.5-.3 0-.7-.1-1-.4l-3.9-3.4c-.6-.5-.7-1.5-.1-2.1.5-.6 1.5-.7 2.1-.1l2.787 2.43L23.8 4c.6-.6 1.5-.6 2.1 0z"/>
    </defs>
    <g fill="none" fill-rule="evenodd">
        <mask id="prefix__b" fill="#fff">
            <use xlink:href="#prefix__a"/>
        </mask>
        <g fill="#15B6FF" mask="url(#prefix__b)" opacity=".505">
            <path d="M0 0H28V28H0z"/>
        </g>
        <mask id="prefix__d" fill="#fff">
            <use xlink:href="#prefix__c"/>
        </mask>
        <use fill="#000" xlink:href="#prefix__c"/>
        <g fill="#15B6FF" mask="url(#prefix__d)">
            <path d="M0 0H28V28H0z"/>
        </g>
    </g>
</svg>
