<?xml version="1.0" encoding="UTF-8"?>
<svg width="13px" height="13px" viewBox="0 0 13 13" version="1.1" xmlns="http://www.w3.org/2000/svg" xmlns:xlink="http://www.w3.org/1999/xlink">
    <!-- Generator: Sketch 61.2 (89653) - https://sketch.com -->
    <title>Icon/ baseline-settings-20px (1)</title>
    <desc>Created with Sketch.</desc>
    <defs>
        <path d="M11.4726166,7.13375 C11.4976887,6.930625 11.5144033,6.719375 11.5144033,6.5 C11.5144033,6.280625 11.4976887,6.069375 11.4642593,5.86625 L12.8766496,4.79375 C13.0020097,4.69625 13.035439,4.5175 12.960223,4.379375 L11.6230487,2.12875 C11.5394754,1.9825 11.3639712,1.93375 11.2135391,1.9825 L9.5504287,2.6325 C9.19942047,2.3725 8.83169755,2.16125 8.42218795,1.99875 L8.17146778,0.27625 C8.14639576,0.11375 8.004321,0 7.83717422,0 L5.16282578,0 C4.995679,0 4.86196157,0.11375 4.83688956,0.27625 L4.58616939,1.99875 C4.17665978,2.16125 3.80057953,2.380625 3.45792864,2.6325 L1.7948182,1.9825 C1.6443861,1.925625 1.46888198,1.9825 1.38530859,2.12875 L0.0481343644,4.379375 C-0.0354390247,4.525625 -0.00200966904,4.69625 0.131707753,4.79375 L1.54409803,5.86625 C1.51066867,6.069375 1.48559666,6.28875 1.48559666,6.5 C1.48559666,6.71125 1.50231133,6.930625 1.53574069,7.13375 L0.123350415,8.20625 C-0.00200966904,8.30375 -0.0354390247,8.4825 0.0397770255,8.620625 L1.37695125,10.87125 C1.46052464,11.0175 1.63602876,11.06625 1.78646086,11.0175 L3.4495713,10.3675 C3.80057953,10.6275 4.16830245,10.83875 4.57781205,11.00125 L4.82853222,12.72375 C4.86196157,12.88625 4.995679,13 5.16282578,13 L7.83717422,13 C8.004321,13 8.14639576,12.88625 8.16311044,12.72375 L8.41383061,11.00125 C8.82334022,10.83875 9.19942047,10.619375 9.54207136,10.3675 L11.2051818,11.0175 C11.3556139,11.074375 11.531118,11.0175 11.6146914,10.87125 L12.9518656,8.620625 C13.035439,8.474375 13.0020097,8.30375 12.8682922,8.20625 L11.4726166,7.13375 L11.4726166,7.13375 Z M6.5,9 C5.125,9 4,7.875 4,6.5 C4,5.125 5.125,4 6.5,4 C7.875,4 9,5.125 9,6.5 C9,7.875 7.875,9 6.5,9 Z" id="path-1"></path>
    </defs>
    <g id="Symbols" stroke="none" stroke-width="1" fill="none" fill-rule="evenodd">
        <g id="ui/-personal-account/-tab-menu" transform="translate(-564.000000, 0.000000)">
            <g id="Group-2" transform="translate(2.000000, 0.000000)">
                <g id="Icon/-baseline-settings-20px-(1)" transform="translate(562.000000, 0.000000)">
                    <mask id="mask-2" fill="white">
                        <use xlink:href="#path-1"></use>
                    </mask>
                    <use id="Shape" fill="#000000" fill-rule="nonzero" xlink:href="#path-1"></use>
                    <g id="colors-/-color-3" mask="url(#mask-2)" fill="#15B6FF" fill-rule="evenodd">
                        <g transform="translate(-244.000000, -244.000000)" id="Rectangle-4">
                            <rect x="0" y="0" width="500" height="500"></rect>
                        </g>
                    </g>
                </g>
            </g>
        </g>
    </g>
</svg>