<?xml version="1.0" encoding="UTF-8"?>
<svg width="13px" height="13px" viewBox="0 0 13 13" version="1.1" xmlns="http://www.w3.org/2000/svg" xmlns:xlink="http://www.w3.org/1999/xlink">
    <!-- Generator: Sketch 61.2 (89653) - https://sketch.com -->
    <title>Icon/ baseline-settings-20px (1) Copy 2</title>
    <desc>Created with Sketch.</desc>
    <defs>
        <path d="M11.5555556,1.01040039 L8.21691895,1.01040039 C7.91358561,0.198400391 7.43888889,7.10542736e-15 6.5,7.10542736e-15 C5.56111111,7.10542736e-15 5.15880208,0.198400391 4.85546875,1.01040039 L1.44444444,1.01040039 C0.65,1.01040039 0,1.64040039 0,2.41040039 L0,11.6 C0,12.37 0.65,13 1.44444444,13 L11.5555556,13 C12.35,13 13,12.37 13,11.6 L13,2.41040039 C13,1.64040039 12.35,1.01040039 11.5555556,1.01040039 Z M6.5,1 C6.775,1 7,1.225 7,1.5 C7,1.775 6.775,2 6.5,2 C6.225,2 6,1.775 6,1.5 C6,1.225 6.225,1 6.5,1 Z M6.5,3 C7.88333333,3 9,4.11666667 9,5.5 C9,6.88333333 7.88333333,8 6.5,8 C5.11666667,8 4,6.88333333 4,5.5 C4,4.11666667 5.11666667,3 6.5,3 Z M11,12 L2,12 L2,11.0666667 C2,9.73333333 5,9 6.5,9 C8,9 11,9.73333333 11,11.0666667 L11,12 Z" id="path-1"></path>
    </defs>
    <g id="Symbols" stroke="none" stroke-width="1" fill="none" fill-rule="evenodd">
        <g id="ui/-personal-account/-tab-menu" transform="translate(-452.000000, 0.000000)">
            <g id="Group-2" transform="translate(2.000000, 0.000000)">
                <g id="Icon/-user" transform="translate(450.000000, 0.000000)">
                    <mask id="mask-2" fill="white">
                        <use xlink:href="#path-1"></use>
                    </mask>
                    <use id="Shape" fill="#000000" fill-rule="nonzero" xlink:href="#path-1"></use>
                    <g id="colors-/-color-3" mask="url(#mask-2)" fill="#15B6FF" fill-rule="evenodd">
                        <g transform="translate(-239.000000, -239.000000)" id="Rectangle-4">
                            <rect x="0" y="0" width="500" height="500"></rect>
                        </g>
                    </g>
                </g>
            </g>
        </g>
    </g>
</svg>