<svg xmlns="http://www.w3.org/2000/svg" xmlns:xlink="http://www.w3.org/1999/xlink" width="28" height="28" viewBox="0 0 28 28">
    <defs>
        <path id="prefix__a" d="M13.023 2.365l.056-.052v4.356a1.54 1.54 0 01-1.549-1.083c-.071-.223-.87-2.35-4.298-2.35-3.657 0-4.052 2.858-4.052 4.086a5.169 5.169 0 001.533 3.519c3.107 3.245 6.588 6.657 8.307 8.325l.059-.057v3.712a1.589 1.589 0 01-1.142-.43c-.051-.051-5.132-4.922-9.49-9.473A8.246 8.246 0 01.08 7.33C.079 3.777 2.289.2 7.232.2a7.766 7.766 0 015.791 2.166z"/>
        <path id="prefix__c" d="M.688 20.672c0-.409.171-.801.476-1.087.052-.047 4.71-4.44 9.113-8.943.962-.935 1.679-1.75 1.723-3.063 0-1.25-.561-4.543-4.297-4.543-3.503 0-4.319 2.128-4.4 2.371-.268.79-1.143 1.232-1.974 1C.502 6.173.024 5.345.26 4.548.317 4.365 1.687 0 7.706 0c5.05 0 7.311 3.578 7.311 7.124-.047 2.09-.912 4.087-2.423 5.595a369.442 369.442 0 01-9.208 9.037 1.617 1.617 0 01-1.112.432C1.4 22.19.69 21.511.688 20.672z"/>
    </defs>
    <g fill="none" fill-rule="evenodd">
        <g opacity=".5" transform="translate(1 3)">
            <mask id="prefix__b" fill="#fff">
                <use xlink:href="#prefix__a"/>
            </mask>
            <use fill="#15B6FF" fill-opacity=".5" xlink:href="#prefix__a"/>
            <g fill="#15B6FF" mask="url(#prefix__b)">
                <path d="M0 0H500V500H0z" transform="translate(-237 -239)"/>
            </g>
        </g>
        <g transform="translate(12 3)">
            <mask id="prefix__d" fill="#fff">
                <use xlink:href="#prefix__c"/>
            </mask>
            <use fill="#161516" xlink:href="#prefix__c"/>
            <g fill="#15B6FF" mask="url(#prefix__d)">
                <path d="M0 0H500V500H0z" transform="translate(-248 -239)"/>
            </g>
        </g>
    </g>
</svg>
