<svg xmlns="http://www.w3.org/2000/svg" xmlns:xlink="http://www.w3.org/1999/xlink" width="28" height="28" viewBox="0 0 28 28">
    <defs>
        <path id="a" d="M13.139 7.437c.03.093.05.188.06.286.015.099.018.199.01.3a1.434 1.434 0 0 1-.504 1.03 1.243 1.243 0 0 1-.241.172.899.899 0 0 1-.258.117 1.482 1.482 0 0 1-1.787-.665 1.285 1.285 0 0 1-.114-.267 1.349 1.349 0 0 1-.027-.201 6.98 6.98 0 0 0 1.108-1.73c.044-.012.089-.022.134-.03a1.53 1.53 0 0 1 .592.033c.474.14.855.496 1.027.96v-.005zm-6.26 3.655c.613-.4 1.2-.834 1.766-1.3a2.336 2.336 0 0 1 1 2.674l-2.766-1.374zm13.036-4.708c-5.016 10.26-11.536 11.6-14.6 11.6a7.849 7.849 0 0 1-1.716-.163 1.53 1.53 0 0 1-.585-.286A11.068 11.068 0 0 1 .1 13.105a2.596 2.596 0 0 1 1.38-.578l1.426.83.546-.3c.354.66.752 1.295 1.193 1.9 1.459.164 7.128.147 11.909-8.61l-4.49-2.42c.16-1.087.236-2.186.225-3.285l6.987 3.764a1.5 1.5 0 0 1 .639 1.978z"/>
        <path id="c" d="M9.914 11.921a2.339 2.339 0 0 1-2.5-2h5a2.34 2.34 0 0 1-2.5 2zm-1.585-4.38c-.041.09-.088.177-.141.26a.996.996 0 0 1-.189.22 1.465 1.465 0 0 1-1.351.421 1.517 1.517 0 0 1-.279-.091 1.471 1.471 0 0 1-.49-.33.957.957 0 0 1-.181-.22 1.329 1.329 0 0 1-.14-.26 1.43 1.43 0 0 1 0-1.15c.037-.091.084-.178.14-.26a1.26 1.26 0 0 1 .411-.41c.081-.056.169-.103.261-.14a1.459 1.459 0 0 1 1.63.32c.071.07.135.147.189.23.053.083.1.17.141.26.04.089.067.184.08.28a1.578 1.578 0 0 1 0 .59c-.014.097-.04.191-.081.28zm3.853.609a1.391 1.391 0 0 1-.221-.191 1.48 1.48 0 0 1-.439-1.059c.002-.196.039-.389.109-.571.041-.09.088-.177.141-.26a1.437 1.437 0 0 1 .41-.41 1.667 1.667 0 0 1 .54-.23c.493-.087.997.065 1.359.41.068.07.129.147.18.23.057.081.104.168.141.26.039.091.07.184.09.28.019.096.029.193.03.291a1.429 1.429 0 0 1-.12.579 1.282 1.282 0 0 1-.141.26.932.932 0 0 1-.18.22 1.483 1.483 0 0 1-1.359.42 1.523 1.523 0 0 1-.28-.09 1.855 1.855 0 0 1-.26-.139zM3.031 3c.47 9.925 5.576 12.422 6.924 12.909C11.32 15.42 16.409 12.938 16.878 3H3.031zm7.248 15.941a1.548 1.548 0 0 1-.65 0C9.235 18.853 0 16.625 0 1.5A1.5 1.5 0 0 1 1.5 0h16.911a1.5 1.5 0 0 1 1.5 1.5c.001 15.125-9.239 17.353-9.632 17.441z"/>
    </defs>
    <g fill="none" fill-rule="evenodd">
        <g opacity=".496" transform="translate(7 7)">
            <mask id="b" fill="#fff">
                <use xlink:href="#a"/>
            </mask>
            <use fill="#000" xlink:href="#a"/>
            <g fill="#15B6FF" mask="url(#b)">
                <path d="M-7-7h28v28H-7z"/>
            </g>
        </g>
        <g transform="translate(1 3)">
            <mask id="d" fill="#fff">
                <use xlink:href="#c"/>
            </mask>
            <use fill="#000" xlink:href="#c"/>
            <g fill="#15B6FF" mask="url(#d)">
                <path d="M-1-3h28v28H-1z"/>
            </g>
        </g>
    </g>
</svg>
