<?xml version="1.0" encoding="UTF-8"?>
<svg width="13px" height="9px" viewBox="0 0 13 9" version="1.1" xmlns="http://www.w3.org/2000/svg" xmlns:xlink="http://www.w3.org/1999/xlink">
    <!-- Generator: Sketch 61.2 (89653) - https://sketch.com -->
    <title>Icon/ baseline-settings-20px (1) Copy 3</title>
    <desc>Created with Sketch.</desc>
    <defs>
        <path d="M11.5555556,2.01040039 C12.35,2.01040039 13,2.64040039 13,3.41040039 L13,3.41040039 L13,5 L13,5 C12.4477153,5 12,5.67157288 12,6.5 C12,7.32842712 12.4477153,8 13,8 L13,9.6 C13,10.37 12.35,11 11.5555556,11 L11.5555556,11 L1.44444444,11 C0.65,11 0,10.37 0,9.6 L0,9.6 L0,8 L0,8 C0.55228475,8 1,7.32842712 1,6.5 C1,5.67157288 0.55228475,5 0,5 L0,3.41040039 C0,2.64040039 0.65,2.01040039 1.44444444,2.01040039 L1.44444444,2.01040039 Z" id="path-1"></path>
    </defs>
    <g id="Symbols" stroke="none" stroke-width="1" fill="none" fill-rule="evenodd">
        <g id="ui/-personal-account/-tab-menu" transform="translate(-224.000000, -2.000000)">
            <g id="Group-2" transform="translate(2.000000, 0.000000)">
                <g id="Icon/-ticket" transform="translate(222.000000, 0.000000)">
                    <mask id="mask-2" fill="white">
                        <use xlink:href="#path-1"></use>
                    </mask>
                    <use id="Shape" fill="#000000" fill-rule="nonzero" xlink:href="#path-1"></use>
                    <g id="colors-/-color-3" mask="url(#mask-2)" fill="#15B6FF" fill-rule="evenodd">
                        <g transform="translate(-239.000000, -239.000000)" id="Rectangle-4">
                            <rect x="0" y="0" width="500" height="500"></rect>
                        </g>
                    </g>
                </g>
            </g>
        </g>
    </g>
</svg>