<svg width="113" height="82" viewBox="0 0 113 82" fill="none" xmlns="http://www.w3.org/2000/svg">
<path d="M44.8868 28.108C45.1294 28.2387 45.3068 28.3693 45.4188 28.5C45.5494 28.6307 45.6521 28.7893 45.7268 28.976V29.508C45.6334 29.564 45.4654 29.676 45.2228 29.844C44.9988 30.012 44.8121 30.1147 44.6628 30.152C44.4948 30.1707 44.2801 30.2547 44.0188 30.404C43.7761 30.5347 43.5614 30.6 43.3748 30.6C43.2628 30.6 43.1321 30.572 42.9828 30.516C42.9081 30.46 42.8148 30.432 42.7028 30.432C42.6094 30.4133 42.5348 30.404 42.4788 30.404C42.3481 30.124 42.2081 29.9373 42.0588 29.844C41.8721 29.9187 41.5828 29.956 41.1908 29.956C40.7988 29.956 40.5094 30.0027 40.3228 30.096C39.7441 30.1333 39.2028 30.2267 38.6988 30.376C38.4001 30.4507 38.1761 30.4973 38.0268 30.516C37.6161 30.5907 37.2801 30.684 37.0188 30.796C36.8508 31.132 36.5988 31.6453 36.2628 32.336C35.7774 33.344 35.3761 34.3053 35.0588 35.22L33.5748 39.224C33.4628 39.4293 33.2481 40.008 32.9308 40.96C32.6321 41.912 32.4641 42.5187 32.4268 42.78C32.3708 43.116 32.2868 43.48 32.1748 43.872C32.0628 44.264 31.9881 44.544 31.9508 44.712C31.9134 44.824 31.8481 45.0387 31.7548 45.356C31.6801 45.6733 31.6334 45.9907 31.6148 46.308C31.6148 46.364 31.5868 46.4293 31.5308 46.504C31.4934 46.5787 31.4654 46.644 31.4468 46.7C31.3161 46.644 31.0081 46.616 30.5228 46.616C30.3174 46.5227 30.1214 46.3453 29.9348 46.084C30.0468 45.3373 30.1494 44.8053 30.2428 44.488C30.4108 43.9467 30.5508 43.368 30.6628 42.752C30.7188 42.472 30.7934 42.1267 30.8868 41.716L31.5308 40.4C31.6428 39.8773 31.8014 39.336 32.0068 38.776C32.2121 38.216 32.3334 37.8707 32.3708 37.74C32.6508 36.9187 32.9308 36.1907 33.2108 35.556C33.2481 35.444 33.4068 35.024 33.6868 34.296C33.7614 34.0907 33.8828 33.7733 34.0508 33.344C34.2374 32.896 34.3868 32.5507 34.4988 32.308C34.6108 32.0653 34.6761 31.888 34.6948 31.776C34.4521 31.7947 34.2001 31.7573 33.9388 31.664C33.6774 31.5707 33.5188 31.4587 33.4628 31.328L33.2948 30.32C33.4628 30.1893 33.8454 30.0773 34.4428 29.984L35.0308 29.76C35.2361 29.6853 35.5628 29.592 36.0108 29.48C38.6054 28.8827 40.0428 28.584 40.3228 28.584C40.4161 28.584 40.5748 28.584 40.7988 28.584C41.0228 28.5653 41.2281 28.5187 41.4148 28.444C41.4334 28.4253 41.6481 28.416 42.0588 28.416C42.4881 28.416 42.7961 28.3787 42.9828 28.304C43.0948 28.2667 43.2814 28.248 43.5428 28.248C43.8228 28.2293 44.0281 28.192 44.1588 28.136C44.1961 28.0987 44.2801 28.08 44.4108 28.08L44.8868 28.108ZM44.3119 45.776C44.1999 45.8693 43.9946 45.916 43.6959 45.916C43.4159 45.8973 43.2292 45.888 43.1359 45.888C43.0239 45.8507 42.8652 45.7293 42.6599 45.524C42.4732 45.3 42.3426 45.1507 42.2679 45.076C42.2679 44.9453 42.3052 44.8427 42.3799 44.768C42.4732 44.6933 42.5386 44.6373 42.5759 44.6C42.6319 44.5253 42.7532 44.4693 42.9399 44.432C43.1452 44.3947 43.2759 44.348 43.3319 44.292C43.4066 44.236 43.5932 44.1053 43.8919 43.9C44.1906 43.6947 44.4519 43.4893 44.6759 43.284C44.9186 43.06 45.1146 42.836 45.2639 42.612C45.7492 41.9213 46.2626 41.1 46.8039 40.148C46.9719 39.8307 47.1866 39.4013 47.4479 38.86C47.7279 38.3 47.8866 37.936 47.9239 37.768L47.0559 37.488C47.0186 37.4507 46.9626 37.376 46.8879 37.264C46.8132 37.152 46.7666 37.0587 46.7479 36.984C46.7479 36.9093 46.7479 36.8253 46.7479 36.732C46.7479 36.508 46.7666 36.3493 46.8039 36.256C46.8599 36.1627 46.9626 36.1067 47.1119 36.088C47.6906 35.976 48.1666 35.892 48.5399 35.836C49.0999 35.7613 49.5199 35.6867 49.7999 35.612C50.0239 35.556 50.2759 35.528 50.5559 35.528C51.0412 35.528 51.4799 35.612 51.8719 35.78C52.1519 35.892 52.3946 36.116 52.5999 36.452C52.8612 36.8067 52.9919 37.1613 52.9919 37.516C52.9919 37.6467 52.9826 37.7773 52.9639 37.908C52.9452 38.02 52.9359 38.1413 52.9359 38.272C52.9359 38.44 52.9639 38.608 53.0199 38.776C52.7772 39.672 52.5159 40.4933 52.2359 41.24C52.1799 41.3893 52.0959 41.6413 51.9839 41.996C51.8719 42.3507 51.7879 42.6587 51.7319 42.92C51.6759 43.2 51.5919 43.4613 51.4799 43.704C51.3306 44.1333 51.2372 44.4787 51.1999 44.74C51.1626 44.9453 51.0786 45.104 50.9479 45.216C50.8359 45.3093 50.7052 45.3933 50.5559 45.468C50.4252 45.524 50.3412 45.5613 50.3039 45.58C50.2292 45.6173 50.0986 45.5987 49.9119 45.524C49.7252 45.4493 49.5666 45.3467 49.4359 45.216C49.3986 45.104 49.3799 44.9547 49.3799 44.768C49.3799 44.6187 49.4172 44.4133 49.4919 44.152C49.8279 43.0693 50.2852 41.5013 50.8639 39.448L51.1719 38.384C51.2279 38.216 51.2559 38.02 51.2559 37.796C51.2559 37.628 51.2279 37.46 51.1719 37.292C50.8732 37.18 50.6399 37.124 50.4719 37.124C50.3786 37.124 50.2759 37.1427 50.1639 37.18C50.0519 37.2173 49.9492 37.2453 49.8559 37.264C49.6692 37.3947 49.5572 37.572 49.5199 37.796C49.1652 38.7293 48.8012 39.5507 48.4279 40.26C48.0546 40.9693 47.7652 41.548 47.5599 41.996C47.4852 42.1827 47.2706 42.5373 46.9159 43.06C46.6919 43.396 46.5332 43.648 46.4399 43.816L46.1319 44.208C46.0386 44.3013 45.8799 44.4507 45.6559 44.656C45.4319 44.8613 45.2732 45.0107 45.1799 45.104L44.3119 45.776ZM60.3388 40.316C60.5815 40.372 60.8242 40.4187 61.0668 40.456C61.3282 40.4747 61.5055 40.4933 61.5988 40.512C61.8228 40.568 62.0375 40.68 62.2428 40.848C62.4482 41.016 62.5882 41.128 62.6628 41.184V41.296C62.6628 41.408 62.6255 41.5293 62.5508 41.66C62.3268 42.108 62.1495 42.444 62.0188 42.668C61.9255 42.836 61.8135 43.0507 61.6828 43.312C61.5522 43.5547 61.4122 43.844 61.2628 44.18C61.2068 44.292 61.1415 44.516 61.0668 44.852C60.9362 45.2627 60.8615 45.496 60.8428 45.552C60.6375 45.7573 60.5068 45.86 60.4508 45.86C60.4322 45.86 60.3948 45.8507 60.3388 45.832C60.2828 45.7947 60.1988 45.776 60.0868 45.776C59.8255 45.72 59.6482 45.58 59.5548 45.356C59.5362 45.2813 59.4895 45.188 59.4148 45.076C59.3588 44.9453 59.3308 44.8333 59.3308 44.74C59.3308 44.5347 59.4242 44.2827 59.6108 43.984C59.7042 43.7973 59.8255 43.5173 59.9748 43.144C60.0495 42.9387 60.1802 42.6307 60.3668 42.22C60.4042 42.1827 60.4322 42.136 60.4508 42.08C60.4695 42.024 60.4788 41.968 60.4788 41.912H60.2828L59.4428 41.772C59.3868 41.8093 59.2842 41.884 59.1348 41.996C58.9855 42.0893 58.8735 42.2387 58.7988 42.444C58.7242 42.5187 58.5468 42.7427 58.2668 43.116C58.0802 43.4147 57.8562 43.6947 57.5948 43.956C56.9788 44.6093 56.4842 45.0947 56.1108 45.412C55.7002 45.7107 55.3175 45.86 54.9628 45.86C54.5335 45.86 54.2162 45.7387 54.0108 45.496C53.8428 45.2347 53.7028 44.9453 53.5908 44.628C53.6282 44.4973 53.6935 44.376 53.7868 44.264C53.8802 44.1333 53.9922 44.068 54.1228 44.068C54.1975 44.068 54.2815 44.096 54.3748 44.152C54.4122 44.152 54.4495 44.1707 54.4868 44.208C54.5242 44.2453 54.5708 44.2827 54.6268 44.32C55.2428 44.04 55.7562 43.676 56.1668 43.228C56.5962 42.78 57.0722 42.1547 57.5948 41.352C57.2775 41.2587 56.9602 41.1093 56.6428 40.904C56.3442 40.6987 56.1295 40.484 55.9988 40.26C55.8308 39.98 55.7095 39.6347 55.6348 39.224C55.5602 38.8133 55.5135 38.58 55.4948 38.524C55.5695 38.356 55.6815 38.0107 55.8308 37.488C55.9055 37.1893 55.9895 36.928 56.0828 36.704C56.1762 36.48 56.3348 36.2187 56.5588 35.92C56.8388 35.5467 57.2308 35.2013 57.7348 34.884C58.2388 34.548 58.5935 34.38 58.7988 34.38C58.9482 34.436 59.1442 34.436 59.3868 34.38C59.6482 34.3053 59.8348 34.2867 59.9468 34.324C60.0215 34.3427 60.0868 34.352 60.1428 34.352C60.1988 34.3333 60.2548 34.3333 60.3108 34.352C60.8708 34.464 61.3095 34.6133 61.6268 34.8C61.9442 34.968 62.1495 35.2573 62.2428 35.668C62.2055 35.7987 62.1495 36.032 62.0748 36.368C62.0002 36.6853 61.9162 36.9747 61.8228 37.236C61.7295 37.4973 61.6175 37.74 61.4868 37.964L61.1508 38.664C60.8148 39.336 60.5255 39.8307 60.2828 40.148L60.3388 40.316ZM59.7508 35.472C58.3508 35.8827 57.4548 36.76 57.0628 38.104C57.0068 38.3467 56.9788 38.58 56.9788 38.804C56.9788 39.1773 57.0628 39.4947 57.2308 39.756C57.3988 39.9987 57.6322 40.12 57.9308 40.12C58.0615 40.12 58.1922 40.092 58.3228 40.036C58.4908 39.9987 58.8082 39.6533 59.2748 39C59.7415 38.3467 60.0028 37.936 60.0588 37.768C60.1335 37.6 60.2642 37.264 60.4508 36.76C60.6375 36.256 60.7775 35.8733 60.8708 35.612C60.6282 35.444 60.4135 35.36 60.2268 35.36C60.1708 35.36 60.0122 35.3973 59.7508 35.472ZM68.6907 28.108C69.0641 28.0333 69.3347 27.996 69.5027 27.996C69.8201 27.996 70.1001 28.0707 70.3427 28.22C71.2761 28.5187 71.9947 28.948 72.4987 29.508C73.0027 30.068 73.3481 30.7307 73.5347 31.496C73.7401 32.2613 73.8614 33.2227 73.8987 34.38C73.9174 34.548 73.9267 34.772 73.9267 35.052C73.9267 35.2947 73.8987 35.724 73.8427 36.34C73.7307 36.4893 73.6654 36.676 73.6467 36.9C73.6281 37.124 73.6187 37.2547 73.6187 37.292C73.6187 37.6653 73.5814 37.936 73.5067 38.104C73.4881 38.3467 73.4134 38.608 73.2827 38.888C73.1521 39.168 73.0867 39.364 73.0867 39.476C72.5454 41.0067 71.7614 42.3787 70.7347 43.592C69.7081 44.8053 68.5974 45.552 67.4027 45.832C67.3094 45.8693 67.0667 45.7947 66.6747 45.608C66.2827 45.4027 65.9934 45.1973 65.8067 44.992C65.6201 44.768 65.4707 44.5627 65.3587 44.376C65.2654 44.1893 65.2187 43.9747 65.2187 43.732C65.1067 43.4707 65.0321 43.2093 64.9947 42.948C64.9761 42.668 64.9667 42.3133 64.9667 41.884C64.9667 41.492 65.0414 41.1093 65.1907 40.736C65.3401 40.3627 65.5454 39.9147 65.8067 39.392C65.9747 38.9253 66.3481 38.356 66.9267 37.684C67.5241 36.9933 68.1494 36.4893 68.8027 36.172C69.3254 35.892 69.7734 35.752 70.1467 35.752C70.3707 35.752 70.5854 35.7893 70.7907 35.864C71.0147 35.92 71.1827 36.0133 71.2947 36.144C71.4067 36.256 71.4907 36.3307 71.5467 36.368C71.6961 36.2187 71.8267 35.8827 71.9387 35.36C72.0694 34.8187 72.1347 34.24 72.1347 33.624C72.1347 32.4667 71.9387 31.6267 71.5467 31.104C70.9307 30.2267 70.2121 29.788 69.3907 29.788C69.0734 29.788 68.6814 29.8813 68.2147 30.068C67.9721 29.956 67.7667 29.7693 67.5987 29.508C67.4307 29.2467 67.3841 28.9947 67.4587 28.752C67.8881 28.3973 68.2987 28.1827 68.6907 28.108ZM71.4067 37.46C71.2574 37.3107 71.0614 37.236 70.8187 37.236C70.3521 37.236 69.7827 37.4693 69.1107 37.936C68.8867 38.104 68.6627 38.3373 68.4387 38.636C68.2334 38.916 68.1027 39.0933 68.0467 39.168C67.8601 39.4667 67.7107 39.6813 67.5987 39.812V39.868C67.5987 39.9987 67.5427 40.1107 67.4307 40.204C67.3374 40.2973 67.2721 40.372 67.2347 40.428C67.0294 40.82 66.8801 41.2213 66.7867 41.632C66.6934 42.024 66.6467 42.304 66.6467 42.472C66.6467 42.808 66.6934 43.1253 66.7867 43.424C66.8987 43.7227 67.0481 43.9187 67.2347 44.012C67.4961 44.124 67.9441 43.9187 68.5787 43.396C69.2321 42.8547 69.7734 42.276 70.2027 41.66C70.3147 41.492 70.4921 41.1747 70.7347 40.708C70.9774 40.2227 71.1547 39.8587 71.2667 39.616C71.4721 39.056 71.5747 38.552 71.5747 38.104C71.5747 37.7867 71.5187 37.572 71.4067 37.46ZM74.7538 44.992C74.6978 44.88 74.6045 44.768 74.4738 44.656C74.3618 44.5253 74.3058 44.4413 74.3058 44.404C74.3058 44.1987 74.2591 44.04 74.1658 43.928C74.1285 43.8907 74.1098 43.8067 74.1098 43.676C74.1098 43.3773 74.2498 42.8733 74.5298 42.164C74.8285 41.436 75.2111 40.652 75.6778 39.812C75.7898 39.7 75.9298 39.504 76.0978 39.224C76.2845 38.944 76.4058 38.7853 76.4618 38.748C76.4618 38.6733 76.4898 38.608 76.5458 38.552C76.6018 38.4773 76.6671 38.44 76.7418 38.44V38.272C76.7418 38.104 77.0498 37.7027 77.6658 37.068C78.2818 36.4147 78.7858 35.9667 79.1778 35.724C79.6445 35.4067 80.1205 35.248 80.6058 35.248C80.9418 35.248 81.2311 35.3413 81.4738 35.528C81.5671 35.64 81.9965 36.0413 82.7618 36.732L83.7978 37.656L83.2938 39.056C83.1258 39.56 83.0418 40.0173 83.0418 40.428C83.0418 41.1373 83.2471 41.8187 83.6578 42.472C83.7511 42.6773 83.9378 42.8733 84.2178 43.06C84.4978 43.2467 84.7778 43.3587 85.0578 43.396C85.4685 43.4707 85.6738 43.676 85.6738 44.012C85.6738 44.3853 85.5058 44.6093 85.1698 44.684C85.0951 44.7027 84.9831 44.712 84.8338 44.712C83.7325 44.712 82.7805 43.9373 81.9778 42.388C81.9031 42.276 81.8005 42.0707 81.6698 41.772C81.5578 41.4733 81.4925 41.268 81.4738 41.156C81.3618 41.3053 81.2218 41.4827 81.0538 41.688C80.8858 41.8933 80.7271 42.0707 80.5778 42.22C78.5431 44.2547 76.9378 45.272 75.7618 45.272C75.3885 45.272 75.0525 45.1787 74.7538 44.992ZM75.7618 43.424C75.7618 43.5173 75.8551 43.5453 76.0418 43.508C76.2471 43.4707 76.4898 43.3773 76.7698 43.228C77.0685 43.0787 77.3671 42.8827 77.6658 42.64C79.2711 41.2587 80.4285 40.0547 81.1378 39.028L81.7538 38.02C81.5671 37.628 81.3711 37.348 81.1658 37.18C80.9605 36.9933 80.7738 36.9 80.6058 36.9C80.2138 36.9 79.5978 37.3947 78.7578 38.384C77.9178 39.3547 77.1525 40.5027 76.4618 41.828C76.2938 42.1453 76.1445 42.472 76.0138 42.808C75.8831 43.1253 75.7991 43.3307 75.7618 43.424ZM92.0725 42.976C92.0538 43.0507 92.0351 43.144 92.0165 43.256C91.9978 43.368 91.9885 43.508 91.9885 43.676C91.9885 43.8253 92.0071 43.928 92.0445 43.984C92.1378 43.984 92.2125 43.9747 92.2685 43.956C92.3431 43.9373 92.4178 43.928 92.4925 43.928C92.6045 43.928 92.6791 43.9747 92.7165 44.068C92.8098 44.3853 92.8565 44.5813 92.8565 44.656C92.8565 44.8427 92.7258 45.076 92.4645 45.356C92.2591 45.5613 92.0631 45.664 91.8765 45.664C91.7831 45.664 91.6618 45.636 91.5125 45.58C91.0831 45.3933 90.7938 45.1693 90.6445 44.908C90.4765 44.6653 90.3925 44.292 90.3925 43.788C90.3925 43.4333 90.4018 43.1533 90.4205 42.948C90.4391 42.836 90.5418 42.472 90.7285 41.856C90.9338 41.24 91.0831 40.8107 91.1765 40.568C91.0085 40.6053 90.8498 40.6707 90.7005 40.764C90.5698 40.8573 90.4391 40.9507 90.3085 41.044C90.1218 41.2307 89.8698 41.4173 89.5525 41.604C89.2351 41.7907 88.9458 41.9307 88.6845 42.024C88.6098 42.0613 88.5258 42.08 88.4325 42.08C88.2271 42.08 87.9938 42.0147 87.7325 41.884C87.4898 41.7347 87.3125 41.548 87.2005 41.324C87.1071 41.1 87.0418 40.848 87.0045 40.568C86.9858 40.4747 86.9765 40.3347 86.9765 40.148C86.9765 39.6813 87.0885 39.224 87.3125 38.776L88.0125 37.348C88.1805 37.0307 88.4138 36.5547 88.7125 35.92C88.7685 35.808 88.8525 35.668 88.9645 35.5C89.0765 35.332 89.1511 35.1827 89.1885 35.052C89.2071 34.9773 89.2631 34.8933 89.3565 34.8C89.4685 34.688 89.5711 34.632 89.6645 34.632C90.1498 34.6693 90.4951 34.8467 90.7005 35.164C90.8125 35.2947 90.8685 35.4347 90.8685 35.584C90.8685 35.7707 90.7938 35.948 90.6445 36.116C90.0658 36.9 89.4685 37.9547 88.8525 39.28C88.6845 39.5787 88.6005 39.8773 88.6005 40.176C88.6005 40.2693 88.6098 40.344 88.6285 40.4C88.9271 40.4 89.3565 40.1947 89.9165 39.784C90.4765 39.3733 91.1951 38.804 92.0725 38.076L92.7445 37.516C93.1738 37.1613 93.5471 36.732 93.8645 36.228C94.0325 35.9107 94.3218 35.7427 94.7325 35.724C95.0125 35.8547 95.1898 35.9387 95.2645 35.976C95.3391 36.1253 95.4138 36.284 95.4885 36.452C95.5818 36.6013 95.6285 36.7227 95.6285 36.816C95.6285 36.984 95.4978 37.208 95.2365 37.488C95.1058 37.5067 94.8445 37.796 94.4525 38.356C94.0791 38.8973 93.7898 39.364 93.5845 39.756C93.5285 39.8493 93.4538 39.952 93.3605 40.064C93.2858 40.1573 93.2111 40.2693 93.1365 40.4L92.0725 42.976Z" fill="#15B6FF"/>
<path fill-rule="evenodd" clip-rule="evenodd" d="M12.1248 43.0486C10.2469 29.7087 13.5797 12.331 37.5655 3.48088C44.9068 0.772398 53.6066 -0.600511 62.871 -0.378763C76.6258 -0.0495315 87.7923 3.90429 95.284 9.27741C104.923 16.1906 109.048 24.7027 110.998 32.8646C113.288 42.4532 113.046 52.5161 108.264 61.9299C105.189 67.9855 99.8413 74.5403 89.434 78.5572C82.3195 81.303 73.7308 81.9782 64.8753 81.4145C38.7289 79.75 24.0745 67.7213 16.7932 56.6603C15.2211 54.2711 13.9471 51.8454 12.8547 49.3957C10.4417 49.5479 8.16284 49.8611 6.1775 50.62C5.14674 51.0141 4.23655 51.4715 3.53406 52.0203C3.33647 52.1749 3.17474 52.3366 3.01484 52.4965C2.78285 52.7285 2.55469 52.9566 2.22639 53.1537C2.0782 53.3785 1.68928 53.4731 1.31024 53.4595C0.993302 53.4717 0.681503 53.3965 0.545982 53.2286C0.476616 53.169 0.432266 53.0986 0.423164 53.0184C0.417824 52.9714 0.413567 52.9241 0.410347 52.8766C0.403656 52.8276 0.401528 52.7783 0.403725 52.7289C0.361183 50.8186 1.95749 48.589 3.98154 46.9966C6.18102 45.266 9.63963 44.2539 13.6458 43.8189C14.0592 43.7739 14.2737 44.0325 13.9285 44.1479C13.4435 44.31 12.9568 44.4676 12.4732 44.6241C9.69396 45.5235 7.01719 46.3898 5.37083 47.9017C4.60036 48.6092 4.10979 49.3415 3.71909 50.0856C4.11819 49.9162 4.51022 49.7684 4.86682 49.6482C7.2414 48.8481 10.2239 48.4061 13.0195 48.7613C13.5828 48.4251 14.8895 48.4034 15.1426 48.9421C20.7341 60.8457 31.8048 75.8411 58.9759 79.6462C66.3225 80.6746 75.1322 80.9704 82.2319 79.393C92.9084 77.0208 99.2378 71.5023 103.039 66.4058C109.156 58.2034 110.445 49.2433 109.847 40.5963C109.246 31.908 106.683 22.9313 99.2302 14.9356C93.7245 9.0288 84.8391 3.33041 71.4656 1.35816C62.1565 -0.0147491 51.9596 0.475134 43.4966 2.77632C20.2088 9.1077 14.4804 23.9806 13.5567 35.6893C13.3628 38.1402 13.3546 40.5969 13.4762 43.0486C13.4974 43.4703 12.1836 43.4626 12.1248 43.0486Z" fill="#15B6FF"/>
</svg>
