<?xml version="1.0" encoding="UTF-8"?>
<svg width="51px" height="58px" viewBox="0 0 51 58" version="1.1" xmlns="http://www.w3.org/2000/svg" xmlns:xlink="http://www.w3.org/1999/xlink">
    <!-- Generator: Sketch 61.2 (89653) - https://sketch.com -->
    <title>✱/ content/ user/ avatar/ person/ man-1</title>
    <desc>Created with Sketch.</desc>
    <g id="Symbols" stroke="none" stroke-width="1" fill="none" fill-rule="evenodd">
        <g id="ui/-performance-list-card" transform="translate(-30.000000, -516.000000)" fill="#999999">
            <g id="Group-2">
                <g id="Group" transform="translate(30.000000, 516.000000)">
                    <g id="✱/-content/-user/-avatar/-person/-man-1">
                        <path d="M44.2591139,48.6383802 C44.4714076,49.0702582 44.6837014,49.5021361 44.8959156,49.9340932 C44.8826001,49.9498922 44.869205,49.9656911 44.85581,49.9815693 C44.7850984,49.9272034 44.6839796,49.8875278 44.6490412,49.8158188 C44.5050741,49.520786 44.3756946,49.2182695 44.2538274,48.9133376 C44.2220291,48.8337885 44.2368153,48.7356686 44.2302171,48.6461015 C44.2398759,48.6435674 44.2494949,48.640954 44.2591139,48.6383802 L44.2591139,48.6383802 Z M8.2864334,46.2757423 C8.26310136,46.1301068 8.24410184,46.0116739 8.22510233,45.8932411 L8.14997872,45.9018335 L8.14997872,46.162853 C7.94825793,46.2223664 7.76295303,46.2752672 7.57876108,46.33189 C7.44854683,46.3719616 7.32588469,46.3699026 7.21872424,46.2767322 C7.00583427,46.0917775 6.7872206,45.9346985 6.45345715,46.1382636 C6.66225308,45.8703544 6.6533098,45.8761355 6.48040626,45.6116711 C6.43421915,45.5409915 6.46089002,45.4231131 6.45341741,45.3168363 C6.92510621,45.324716 7.41968982,45.0731997 7.8688018,45.4858734 C7.88939123,45.40379 7.90298502,45.3497013 7.91959966,45.283417 C8.39764813,45.2346342 8.88591183,45.0787828 9.36093946,45.3520375 C9.39023369,45.6391906 9.42107809,45.9415091 9.45522157,46.2757423 L8.2864334,46.2757423 Z M4.9698653,46.4871475 C4.83066802,46.3111019 4.88154538,46.010486 4.64389245,45.8913405 C4.70558125,45.7549309 4.7730335,45.6057713 4.83754441,45.4631054 C5.11673394,45.7714426 5.3219128,46.0934801 4.9698653,46.4871475 L4.9698653,46.4871475 Z M4.83913433,48.8140695 C4.72235488,48.7110792 4.73487548,48.3827063 4.85527199,48.2814187 C4.88897824,48.2531073 4.92721576,48.2300226 4.97753665,48.1945838 C5.02916923,48.3765689 5.07674751,48.544022 5.12901605,48.7283037 C5.05707228,48.7866292 5.00023273,48.9560226 4.83913433,48.8140695 L4.83913433,48.8140695 Z M4.77426569,49.7451788 L4.77426569,49.4149052 C4.89569564,49.5300911 4.99065347,49.6201729 5.12249739,49.7451788 L4.77426569,49.7451788 Z M4.41267868,53.503273 C4.44431804,53.4187347 4.47472521,53.3374433 4.507875,53.2487473 C4.62326327,53.3273858 4.73741935,53.4051927 4.88134664,53.503273 L4.41267868,53.503273 Z M3.58798842,46.2342849 C3.48830059,46.0174154 3.38853326,45.8005459 3.28006113,45.5646702 C3.14014839,45.7651468 3.14933016,45.830362 3.33447606,46.123217 C3.27485415,46.1463413 3.21725939,46.1695448 3.15902866,46.1911248 C3.10457398,46.211319 3.04952308,46.2298501 2.98747655,46.2516677 C2.97269032,45.9449936 2.95842081,45.6476642 2.94514499,45.3720733 C3.13915469,45.4145602 3.3338401,45.4572056 3.56064184,45.5068991 C3.57781295,45.7175123 3.59856138,45.9722755 3.61934955,46.2270388 C3.60889584,46.2294541 3.59844213,46.2318695 3.58798842,46.2342849 L3.58798842,46.2342849 Z M1.74022595,46.0254931 C1.64312173,46.0628721 1.57956477,46.1955596 1.51012512,46.2918977 C1.46950273,46.3482829 1.44696565,46.417537 1.41000006,46.4939185 C1.22982265,46.2625963 1.20517893,46.0089418 1.23395644,45.7209968 L1.88538542,45.7209968 C1.93053908,45.8745912 1.90486191,45.9619805 1.74022595,46.0254931 L1.74022595,46.0254931 Z M8.91266219,44.4840053 C8.71869224,44.4048521 8.49840916,44.3289458 8.29688711,44.343636 C8.019208,44.363949 7.75154537,44.4997251 7.4731508,44.5348471 C7.10830446,44.5808185 6.73364038,44.6452418 6.3879128,44.4130881 C6.3020175,44.3553962 6.16007761,44.3648201 6.04520606,44.370324 C5.95080471,44.374838 5.85922545,44.4376775 5.76478435,44.4422311 C5.53357058,44.4534765 5.30140287,44.4480518 5.06967238,44.445478 C4.23782749,44.4363708 3.40526715,44.412217 2.60804272,44.7207917 C2.49142226,44.765892 2.35230447,44.8011328 2.2331004,44.7820078 C1.96571601,44.7391645 1.70226666,44.6665051 1.4410432,44.5924598 C1.16980326,44.5156428 0.940219162,44.5850157 0.733529874,44.759319 C0.407596768,45.0341576 0.257627791,45.4075121 0.158615673,45.8054955 C0.142358766,45.8708691 0.149314655,45.9988843 0.177734432,46.0091794 C0.367888576,46.0776019 0.306994732,46.231434 0.310293811,46.3562418 C0.318322895,46.6578872 0.333148877,46.6879408 0.626647664,46.7815467 C1.02078824,46.9072653 1.41596225,46.7798837 1.80986434,46.7715288 C2.33247025,46.7603626 2.85376448,46.6964937 3.37613191,46.6641038 C3.56330495,46.6525021 3.72953084,46.8117984 3.72774218,47.0030094 C3.72519831,47.2709978 3.70409216,47.5388674 3.68783525,47.8066579 C3.65877951,48.2852596 3.49982749,48.7637028 3.6887892,49.2425421 C3.69785173,49.2655476 3.69037912,49.2948885 3.69121382,49.3212597 C3.70437039,49.7346461 3.72297243,50.1479137 3.72976933,50.5613793 C3.74634422,51.568197 3.75135246,52.5752918 3.77345231,53.5819906 C3.78311106,54.0194516 3.81908295,54.4565959 3.85139802,54.8933441 C3.86614451,55.0922765 3.97060209,55.314927 3.9096685,55.4816278 C3.82850321,55.7038428 3.9251702,55.8530025 3.97767723,56.0318198 C4.0390083,56.2407304 4.11838493,56.4490867 4.14092202,56.662828 C4.15451581,56.7916747 4.06870001,56.9290346 4.04115469,57.0652858 C4.03364233,57.1025856 4.06639463,57.1789671 4.09576836,57.1878763 C4.47826278,57.3034977 4.86346007,57.4101704 5.2419002,57.5173975 C5.39775187,57.2273935 5.54056622,57.5596864 5.70079017,57.4970053 C5.77766268,57.2439448 5.99885997,57.3301461 6.16289971,57.3637635 C6.5374843,57.4405409 6.87323515,57.3423022 7.19793607,57.1877179 C7.39258173,57.0949831 7.41249545,56.900842 7.28728944,56.717669 C7.2503636,56.6636199 7.23673006,56.5883868 7.22862148,56.5209145 C7.18211639,56.1326718 7.14371988,55.7433996 7.09622109,55.3551965 C7.05126617,54.9878608 6.99323418,54.6220692 6.95046539,54.2544959 C6.90376156,53.8531468 6.86301993,53.4509661 6.82847897,53.04835 C6.77219588,52.3918813 6.71893364,51.7350562 6.67215032,51.0778352 C6.63876205,50.6085387 6.61570824,50.1384898 6.59225696,49.6685597 C6.55052162,48.8316503 6.51447024,47.9943844 6.46955507,47.1576333 C6.46188372,47.0152447 6.4216588,46.8745587 6.38672036,46.6780417 C6.5201542,46.620033 6.69854295,46.4781987 6.87927683,46.4751498 C7.69836263,46.4614098 8.51848187,46.4216155 9.33236069,46.6082333 C9.68810475,46.6898415 9.82273102,46.5908901 9.84673878,46.1952032 C9.85611929,46.0406981 9.8203064,45.8838964 9.81172084,45.7277282 C9.77821333,45.1214281 9.46559578,44.7095068 8.91266219,44.4840053 L8.91266219,44.4840053 Z M38.3398507,46.2776034 C38.3105167,46.1312947 38.2854358,46.0060513 38.2603151,45.8808474 L38.194413,45.8848071 C38.1757315,45.9751661 38.1570499,46.0654854 38.1358245,46.1681193 C37.9674125,46.2233167 37.7852874,46.2861166 37.6010955,46.3423435 C37.4461978,46.3896216 37.3148308,46.3372355 37.1905788,46.2413331 C36.8629762,45.9885892 36.8615056,45.9905295 36.4501144,46.1443615 C36.5078682,46.0832642 36.5326709,46.0540421 36.5605342,46.0281064 C36.6614542,45.9339858 36.6718682,45.8254125 36.5981357,45.7154929 C36.4765865,45.534379 36.4733272,45.5365568 36.4982889,45.3178658 C36.9643335,45.3098674 37.4490596,45.0843659 37.9029811,45.4887243 C37.9107319,45.3988405 37.9152235,45.3468504 37.9205497,45.2851196 C38.4188299,45.2327732 38.9156394,45.0836135 39.4080368,45.3572247 C39.4264004,45.6351518 39.4466718,45.9412715 39.4688512,46.2776034 L38.3398507,46.2776034 Z M34.9899738,46.4803369 C34.9029258,46.2819194 34.8152419,46.0821555 34.7092739,45.8407363 C34.7382899,45.7622166 34.7915919,45.6181649 34.8415948,45.482864 C35.150158,45.7407158 35.3756083,46.1175151 34.9899738,46.4803369 L34.9899738,46.4803369 Z M35.0526166,48.8146238 C35.0088938,48.8365998 34.92908,48.8396091 34.8918362,48.8133963 C34.6880485,48.6700178 34.754825,48.3287364 35.0030906,48.2216281 C35.0622753,48.3865075 35.1243616,48.532737 35.1619632,48.6849456 C35.1703897,48.7189589 35.1011886,48.790272 35.0526166,48.8146238 L35.0526166,48.8146238 Z M34.8246224,49.7439117 L34.8246224,49.4353766 C34.9118691,49.5586797 34.9782084,49.6523648 35.0429578,49.7439117 L34.8246224,49.7439117 Z M34.4402598,53.4967 C34.4748405,53.4160817 34.5093815,53.3354238 34.5462278,53.2493809 C34.6568861,53.3256831 34.7648415,53.4000848 34.9050325,53.4967 L34.4402598,53.4967 Z M33.6093291,46.2231187 C33.5155637,46.0134162 33.4218381,45.8037137 33.3092719,45.5519598 C33.1338643,45.8030405 33.2811304,45.9653066 33.3728289,46.1261471 C33.240667,46.1708119 33.1196743,46.2117149 33.0274988,46.2428377 C33.0044847,45.9202855 32.9813117,45.5952386 32.9577014,45.2641731 C33.120191,45.4511473 33.3165061,45.531924 33.5747882,45.4317847 C33.5954174,45.7008818 33.6152913,45.9596839 33.6351255,46.2184463 C33.62654,46.2199906 33.6179544,46.2215745 33.6093291,46.2231187 L33.6093291,46.2231187 Z M31.9072826,45.9788485 C31.5959767,45.9919153 31.5701803,46.2863938 31.3789132,46.4941165 C31.3197286,46.2450551 31.2605836,45.9960334 31.195874,45.7237289 L31.9072826,45.7237289 L31.9072826,45.9788485 Z M39.8598517,45.8233931 C39.8469733,45.3011958 39.6330499,44.8750197 39.1898206,44.5987556 C38.9136122,44.4266697 38.5979341,44.3097019 38.2565788,44.3683046 C38.0157857,44.4096828 37.7796035,44.4772739 37.5397644,44.5252647 C37.1120766,44.6108325 36.6973068,44.6003791 36.3065448,44.3681858 C36.2465652,44.3325491 36.1469171,44.3483084 36.0689714,44.3609793 C35.9547358,44.3794708 35.8441571,44.4386674 35.7309152,44.4418747 C35.3536675,44.4524865 34.9755056,44.456763 34.5984169,44.4435774 C33.9050538,44.4193048 33.2314852,44.5019425 32.5775919,44.7433221 C32.4711866,44.7826017 32.338031,44.7785629 32.2228812,44.759913 C32.0192128,44.7269292 31.8192409,44.6696332 31.6188318,44.6182767 C31.2714746,44.5293828 30.9431963,44.527007 30.6814561,44.821129 C30.4500834,45.081119 30.284573,45.3785671 30.2084557,45.7186606 C30.1888997,45.8060894 30.1708144,45.951329 30.2162463,45.9856591 C30.4019486,46.1260283 30.3107271,46.3258318 30.3634329,46.4909092 C30.3840621,46.5554513 30.3973379,46.6438304 30.4445982,46.6744781 C30.6004896,46.7755281 30.765523,46.8428419 30.9683568,46.8258947 C31.5891401,46.7739442 32.2115928,46.7416336 32.8333699,46.701364 C33.0294862,46.6886932 33.225523,46.6664796 33.4217586,46.6643018 C33.6151323,46.6621636 33.7996025,46.9032265 33.7795696,47.0924972 C33.7226505,47.6304935 33.6478051,48.168569 33.6307533,48.7081491 C33.6200611,49.047411 33.7271818,49.38893 33.7355288,49.7305281 C33.7620805,50.8165385 33.7648628,51.9030637 33.781398,52.9893117 C33.7887513,53.4750803 33.7959457,53.9613241 33.8241668,54.4461424 C33.8418148,54.7489757 33.902192,55.0492352 33.9351827,55.3515141 C33.9433708,55.4263909 33.9147921,55.5045146 33.9119302,55.5814504 C33.9090683,55.6579902 33.8929307,55.7471613 33.9246098,55.809684 C34.1242239,56.2039849 34.1932264,56.6114715 34.0748173,57.0410924 C34.0450461,57.1490718 34.0881328,57.1730672 34.1817392,57.1997156 C34.5357741,57.3004884 34.8868279,57.4117939 35.2579544,57.525 C35.3042608,57.3695049 35.3932167,57.3570717 35.4985885,57.4258506 C35.6092865,57.4980744 35.7052777,57.5787323 35.7955453,57.3948466 C35.8142666,57.3567153 35.9208706,57.333789 35.9774716,57.346341 C36.380317,57.4355913 36.7665875,57.3864522 37.1443122,57.2334121 C37.3441251,57.1524375 37.4647601,56.9825293 37.3825216,56.8287765 C37.2770703,56.6315073 37.249525,56.4311495 37.2274251,56.2159431 C37.1776209,55.731006 37.0994765,55.248999 37.0399341,54.7649726 C36.9811071,54.2868461 36.9238701,53.8083236 36.8786767,53.3288508 C36.819333,52.6989513 36.7681377,52.0682203 36.7217121,51.4372913 C36.6880456,50.9803488 36.6656277,50.5226541 36.6422162,50.0650781 C36.6003616,49.2472541 36.5631973,48.4291925 36.520667,47.611408 C36.5050063,47.3109902 36.4795676,47.0110079 36.4551624,46.6616092 C36.5671323,46.6112426 36.7304169,46.475427 36.8943374,46.4745954 C37.7135027,46.4705566 38.5368415,46.3991643 39.3477392,46.6120345 C39.6266108,46.6852483 39.8917693,46.6037985 39.8617596,46.1994005 C39.8524983,46.074751 39.8629123,45.9487157 39.8598517,45.8233931 L39.8598517,45.8233931 Z M18.5001435,55.8412027 C18.4263713,56.0041419 18.3623374,56.1573404 18.4282792,56.344671 C18.442827,56.38597 18.3646825,56.4884455 18.3060941,56.5198058 C18.2179729,56.5668859 18.1107329,56.584348 18.009336,56.5996718 C17.8074164,56.630161 17.7513718,56.5733402 17.6796268,56.3140629 C17.6638866,56.2571233 17.6146787,56.2094097 17.5490548,56.1694965 C17.5924198,55.9869967 17.6633699,55.7879852 17.5391576,55.5879046 C17.5396743,55.5881026 17.540191,55.5882214 17.5407077,55.5883797 C17.5501677,55.5485458 17.5464712,55.482301 17.569366,55.4713724 C17.7324121,55.3937238 17.8995919,55.3240342 18.0680834,55.2585417 C18.1977014,55.2082147 18.4883384,55.4462683 18.5140155,55.6274614 C18.5239525,55.6974282 18.5278876,55.7798679 18.5001435,55.8412027 L18.5001435,55.8412027 Z M16.6108047,55.7803431 C16.938447,55.6514172 17.2013398,55.4659873 17.535938,55.5868751 C17.4878032,55.6177999 17.4400262,55.6493186 17.3914145,55.6794515 C17.1038381,55.8578332 17.0226331,55.8703457 16.6108047,55.7803431 L16.6108047,55.7803431 Z M13.8667659,56.2028762 L13.8667659,55.8235032 L13.4525526,55.8235032 C13.4325197,55.8686826 13.4111353,55.9169507 13.3897509,55.9652583 L13.3897509,55.7793532 L13.919114,55.7793532 C13.9011876,55.924276 13.8839768,56.0635365 13.8667659,56.2028762 L13.8667659,56.2028762 Z M12.9980747,51.1426941 C13.1567485,51.0827055 13.3239283,51.0195889 13.4995347,50.9531857 C13.5540291,50.6920079 13.3285788,50.6121419 13.1377887,50.4531228 L13.9152584,50.4531228 C13.8137422,50.7013526 14.0804111,51.0161044 13.7463297,51.2415267 C13.5200844,51.39425 13.3417354,51.673761 12.9980747,51.4690476 L12.9980747,51.1426941 Z M13.9421678,50.0411223 C13.8676801,50.1745621 13.8098469,50.2781067 13.7604799,50.3665255 C13.6345982,50.226869 13.5204421,50.1002793 13.3812448,49.9458929 C13.5780369,49.9793123 13.7412817,50.0069902 13.9421678,50.0411223 L13.9421678,50.0411223 Z M13.7607184,45.7153741 C13.759049,45.7506149 13.8829433,45.8054559 13.9559603,45.8256105 C13.9613263,45.8270755 13.9669307,45.8278279 13.9726544,45.828105 C13.8499923,45.9596839 13.7319807,46.086234 13.6398847,46.185027 C13.610352,46.0375304 13.5643636,45.8079505 13.5139632,45.5561174 C13.6400834,45.5598394 13.7703772,45.5102251 13.7607184,45.7153741 L13.7607184,45.7153741 Z M15.3075492,45.7792035 C15.1289617,45.8802931 14.9679031,45.971444 14.7915415,46.0712665 C14.7503626,46.0274729 14.7108134,45.9854215 14.6508338,45.9216317 C14.8862211,45.9033778 15.0190587,45.5895367 15.3075492,45.7792035 L15.3075492,45.7792035 Z M15.7212855,45.8332526 C15.8878294,45.7948045 16.0568774,45.7671662 16.2250509,45.735885 C16.2399167,45.7550893 16.2547426,45.7742539 16.2695686,45.7934186 C16.2346699,45.8335297 16.2064489,45.8973591 16.1636801,45.9092381 C16.0288948,45.9466171 15.8892206,45.9688702 15.7500631,45.9862135 C15.7214048,45.9897771 15.6868638,45.9466567 15.6550257,45.9250766 C15.6768473,45.8932411 15.6935812,45.8396276 15.7212855,45.8332526 L15.7212855,45.8332526 Z M17.7689007,45.4839727 C17.8229579,45.6110772 17.8702579,45.7223035 17.9263423,45.8542387 C17.791557,45.9413507 17.6545458,46.0298883 17.5110558,46.122623 C17.4105332,45.7172351 17.4500824,45.61963 17.7689007,45.4839727 L17.7689007,45.4839727 Z M15.2825478,50.5022223 C15.2965391,50.5110127 15.3105303,50.5197635 15.3245216,50.5285143 L15.3245216,50.9429302 C15.2227669,50.9049969 15.128604,50.8698353 14.9902017,50.8182808 C15.1029268,50.6964031 15.1927174,50.5993127 15.2825478,50.5022223 L15.2825478,50.5022223 Z M18.3667097,55.0855451 C18.2336733,55.0590947 18.0994445,55.0250022 17.965017,55.0214385 C17.6190907,55.0123313 17.2726476,55.0130045 16.9265623,55.0194983 C16.5382249,55.0268236 16.1499671,55.042781 15.7618284,55.0587779 C15.5189685,55.0688354 15.2762279,55.0837632 15.0337257,55.1003937 C14.588827,55.1308433 14.1440873,55.1641043 13.7227591,55.1945144 C13.758731,54.9516696 13.8141396,54.7309989 13.8177567,54.5094571 C13.8212943,54.2902118 13.7605594,54.0706498 13.7489928,53.850177 C13.7158032,53.2154864 13.7004605,52.5797662 13.6621435,51.9454319 C13.6501396,51.7469351 13.7409637,51.6621592 13.9094949,51.6542004 C14.188446,51.6410939 14.4684702,51.646875 14.747938,51.6511514 C15.4806913,51.6623572 16.2133253,51.6786709 16.9460786,51.6891244 C17.1058255,51.691421 17.2065468,51.5918756 17.2379874,51.447428 C17.269587,51.3020696 17.2689113,51.1499006 17.2836181,51.0007806 C17.3079041,50.754491 17.3197489,50.5060236 17.3610073,50.2625453 C17.4361309,49.8191844 17.3816762,49.7125909 16.9498149,49.5478699 C16.9194474,49.5362682 16.8920214,49.5166284 16.8613757,49.5062145 C16.4734756,49.3746357 16.0934455,49.2691905 15.6735085,49.4191024 C15.2605274,49.5665198 14.8179341,49.6037008 14.380508,49.5886938 C13.9116413,49.5726177 13.6267679,49.4217158 13.6266884,48.8369958 C13.6266486,48.1614812 13.6266884,47.4859667 13.6266884,46.7608774 C14.0509579,46.6068474 14.5341736,46.6392373 15.0212051,46.720885 C15.3065158,46.7687571 15.5856656,46.868936 15.8855638,46.7711725 C16.0674106,46.7118571 16.2631692,46.6716271 16.4538003,46.6666776 C16.9833621,46.6527792 17.5138381,46.6506806 18.0432409,46.666836 C18.2864586,46.6742405 18.3917509,46.6334958 18.3873389,46.319338 C18.3809394,45.864019 18.3193699,45.4087792 18.2673796,44.9550836 C18.2474659,44.7812554 18.1767145,44.6640897 17.9521784,44.6297596 C17.5965536,44.5753938 17.2411275,44.4784222 16.9050587,44.3492983 C16.4684276,44.1814096 16.0435221,44.2185906 15.6060165,44.3103751 C15.0349976,44.4301938 14.4772943,44.6400943 13.8811944,44.6020026 C13.431208,44.5732556 12.9791944,44.5454985 12.5341765,44.4777491 C12.0499671,44.4040206 11.5821338,44.4817483 11.1172022,44.5754334 C10.7830015,44.6427868 10.6331915,44.8582308 10.6502434,45.1957901 C10.6781862,45.7498626 10.7284673,46.3027867 10.7649162,46.8564631 C10.7950054,47.3136431 10.8179002,47.7712983 10.845366,48.2286367 C10.8845575,48.8813041 10.9279225,49.5336944 10.9640534,50.1865202 C10.9948183,50.7425329 11.0198992,51.2988227 11.043907,51.8551521 C11.0724857,52.5166495 11.1036084,53.1781865 11.1220117,53.8400008 C11.1427204,54.5828688 11.1523394,55.3260536 11.1629521,56.0691988 C11.1678808,56.412262 11.1632303,56.755444 11.1644227,57.0985468 C11.1646215,57.1547737 11.1725711,57.2110006 11.1768241,57.2658416 C11.2236869,57.2694052 11.2501193,57.2738004 11.2763132,57.2731331 C12.2119797,57.2472709 13.1475667,57.2174152 14.0833127,57.1959143 C14.8887252,57.1773436 15.6943364,57.1641976 16.4999079,57.1561595 C17.135716,57.1497845 17.7719215,57.1656231 18.4074513,57.1505765 C18.7816384,57.1417069 18.8639564,57.0433494 18.867017,56.7565131 C18.87127,56.3576586 18.8325158,55.9579329 18.803778,55.5591576 C18.7844605,55.2915255 18.626542,55.1372976 18.3667097,55.0855451 L18.3667097,55.0855451 Z M25.5367213,53.9491284 C25.4726079,53.9280235 25.4146554,53.9089381 25.3406845,53.8845467 C25.4368745,53.7684105 25.4087727,53.53986 25.6721028,53.6058672 C25.6265516,53.7213303 25.5831866,53.8312895 25.5367213,53.9491284 L25.5367213,53.9491284 Z M25.3154048,52.8770955 C25.108,52.8637119 24.9265109,52.8492197 24.7446641,52.8409044 C24.4095492,52.8255806 24.0738779,52.7987739 23.7391605,52.8068119 C23.5585458,52.8111675 23.4941144,52.7219568 23.4892254,52.584003 C23.477778,52.2600648 23.4368376,51.9257129 23.4975327,51.6129013 C23.6968289,50.5865627 23.935873,49.5679849 24.1608066,48.5466354 C24.171777,48.4968627 24.1938769,48.449545 24.2330286,48.3374476 C24.4577635,49.1249012 24.6736345,49.8580681 24.8755143,50.5950363 C25.0783083,51.3353306 25.3389355,52.0660425 25.3154048,52.8770955 L25.3154048,52.8770955 Z M25.2230306,54.0143041 C25.0968706,54.2102667 24.8691149,54.2105043 24.6720844,54.261742 C24.4791876,54.3119106 24.2824353,54.3475474 24.0871139,54.3895592 L24.0871139,53.5876133 C24.1823897,53.6031747 24.2673311,53.6170334 24.3522327,53.6309318 C24.0357596,53.4678342 23.9929511,53.3986197 24.0902143,53.1738309 C24.1660931,52.9985377 24.2824353,52.992321 24.6978808,53.1533992 C24.6077722,53.2312457 24.5277596,53.300381 24.4317683,53.3832959 C24.5088793,53.417032 24.5750994,53.4386121 24.6327737,53.4740112 C24.6665197,53.4947202 24.7156879,53.5561738 24.7083742,53.5674983 C24.611111,53.7180042 24.7306331,53.7730036 24.8349714,53.8494643 C24.8967,53.606184 24.9573951,53.366903 25.0213098,53.1149511 C25.171239,53.1909762 25.1809375,53.2866411 25.1304576,53.4006787 C25.0805739,53.5133701 25.0809317,53.6288332 25.1968764,53.6862083 C25.4044402,53.7888422 25.2899661,53.9103636 25.2230306,54.0143041 L25.2230306,54.0143041 Z M21.6114135,51.9892651 C21.6581173,51.8240689 21.7023965,51.6674255 21.7547843,51.4820352 C21.8583277,51.6378866 21.9493902,51.7748902 22.041049,51.9128044 C21.8960087,51.9386609 21.7645623,51.9620228 21.6114135,51.9892651 L21.6114135,51.9892651 Z M28.5301386,54.3223245 C28.1231197,52.8019812 27.7627649,51.2693234 27.3737518,49.7441493 C26.9844605,48.2176685 26.5582036,46.7023935 25.8806602,45.2713401 C25.8576859,45.2227949 25.7948444,45.1746853 25.7418207,45.1616185 C25.4654135,45.093671 25.1869792,45.0328114 24.9076307,44.9775744 C24.5901241,44.9147349 24.2657412,44.7937283 23.9537198,44.8179613 C23.4797257,44.8546672 23.0103025,44.9807421 22.5463248,45.097987 C22.3723878,45.141939 22.1835056,45.2311101 22.1451886,45.4521768 C22.1107669,45.6504756 22.0778953,45.8494475 22.0562327,46.0494093 C22.0225662,46.3604786 22.0384654,46.6823577 21.963938,46.982538 C21.7048212,48.0267347 21.4166883,49.0637644 21.1376181,50.1029718 C21.0490199,50.432889 20.9085904,50.7568668 20.8765138,51.0915751 C20.8504392,51.3633648 20.8188396,51.6242259 20.7299632,51.8813253 C20.6732031,52.0454524 20.6310703,52.2146478 20.583651,52.381903 C20.2536636,53.5457203 20.121462,54.7446597 19.9469288,55.9361945 C19.9225235,56.1026182 19.9400921,56.3118851 19.8457305,56.4240617 C19.6160669,56.6970789 19.7533961,56.9846675 19.7127339,57.2461622 L22.3897179,57.2461622 C22.4109433,57.0905879 22.4184954,56.9731846 22.4439738,56.8598201 C22.5359108,56.4504725 22.6417596,56.0440551 22.7274164,55.6334404 C22.8184789,55.1968505 23.034032,54.8771492 23.49797,54.7947887 C23.7734232,54.745808 24.0543616,54.7160315 24.3338691,54.7060532 C24.4701648,54.7011828 24.6186234,54.7402645 24.7436704,54.7979564 C24.8703073,54.8564007 24.968763,54.8662998 25.0890403,54.7923733 C25.3894552,54.6076957 25.6794561,54.7127054 25.956857,54.853431 C26.0206525,54.8857812 26.0830965,54.9718638 26.0967698,55.0426622 C26.1628706,55.385567 26.2189152,55.7307684 26.265619,56.0769201 C26.3195967,56.4770417 26.4634445,56.8397843 26.7121871,57.1548925 C26.772604,57.2314323 26.8918876,57.3058735 26.9842618,57.3061024 C27.5644227,57.3069822 28.1452991,57.2985482 28.7245061,57.2671483 C28.9428415,57.2553089 29.1574009,57.1739779 29.366793,57.1259475 C29.3634145,57.0593068 29.3664353,57.0385582 29.3608308,57.0204231 C29.0821978,56.1214661 28.7733165,55.2306263 28.5301386,54.3223245 L28.5301386,54.3223245 Z M47.9845691,50.7789616 C47.9691469,50.7611828 47.9536849,50.743404 47.9382627,50.7257044 C48.0111207,50.5938484 48.0809578,50.4602105 48.1577906,50.3306511 C48.2236529,50.2196624 48.2430102,50.1271256 48.0887484,50.0884004 C48.3989811,49.9574551 48.5778071,50.2332044 48.815937,50.3229694 C48.8568376,50.338412 48.8422103,50.5000445 48.8535783,50.5969369 C48.558728,50.6916911 48.2238516,50.4938675 47.9845691,50.7789616 L47.9845691,50.7789616 Z M47.811268,45.7581778 L48.2389559,45.7581778 C48.2416587,45.8188395 48.2441231,45.8732845 48.2471042,45.9394897 L47.8200126,45.9394897 C47.8173097,45.8829856 47.8146864,45.8285802 47.811268,45.7581778 L47.811268,45.7581778 Z M46.9419408,49.8969518 L47.1620649,49.8969518 L47.1620649,49.6844379 L46.9419408,49.6844379 L46.9419408,49.8969518 Z M45.7123383,49.9475956 C45.4726582,49.9813317 45.2291624,49.9877859 44.9743383,50.0076237 C45.0038313,50.0818274 45.0357886,50.1621289 45.0654804,50.2367681 C44.999141,50.329978 44.8490528,50.0623855 44.8289801,50.303884 C44.7708289,50.157892 44.6494784,50.1358764 44.512825,50.1439541 C44.5762627,50.1227304 44.6395812,50.1015068 44.7668938,50.0589406 C44.6273786,50.0115042 44.5383034,49.9782432 44.4473601,49.9513176 C44.3858701,49.9331429 44.319968,49.9292228 44.2590344,49.909583 C44.0130344,49.8303902 43.9727697,49.7776082 44.0804469,49.5516712 C44.2631682,49.1684968 44.1959544,48.8180291 44.0241241,48.4534255 C43.8068618,47.9923254 43.615714,47.51899 43.4139932,47.0506438 C43.4073155,47.0351221 43.408667,47.0160762 43.4457121,46.9674518 C43.4830751,47.0098596 43.5318458,47.0466842 43.5559331,47.0955462 C43.7444576,47.4780078 43.928252,47.862766 44.1518342,48.2436437 C44.1518342,48.1118273 44.1556898,47.9798525 44.1510392,47.8482341 C44.1407843,47.5602099 44.1221822,47.2725421 44.1168958,46.9844783 C44.1158623,46.9275782 44.1505623,46.864026 44.1840698,46.813699 C44.2556956,46.7061948 44.3355889,46.6039569 44.415363,46.5021149 C44.4995094,46.3946107 44.5962559,46.3196547 44.749842,46.3434126 C45.1148473,46.3999562 45.4812835,46.4473531 45.8470043,46.4996996 C46.1606553,46.5446019 46.2952816,46.8197968 46.495015,47.0089488 C46.5785652,47.0880624 46.6218507,47.2132267 46.7111246,47.2816888 C46.9899961,47.495549 47.034474,47.7767626 47.0218342,48.1028389 C47.0081609,48.454257 47.0277964,48.8072589 46.899649,49.1432343 C46.6928405,49.685309 46.2372099,49.8736691 45.7123383,49.9475956 L45.7123383,49.9475956 Z M44.7664963,51.2212137 C44.7086233,51.192348 44.6537712,51.1649472 44.5968521,51.136517 C44.6450266,51.0545921 44.6860863,50.9847836 44.7334261,50.9043633 C44.787841,50.9203999 44.8462307,50.9375847 44.9231827,50.9602735 C44.8694833,51.0496425 44.8211895,51.1301816 44.7664963,51.2212137 L44.7664963,51.2212137 Z M43.7233912,51.5066642 C43.7364285,51.3152948 43.4409423,51.1432484 43.7429869,50.9809032 C43.9552011,50.8667864 44.025396,51.0340416 44.0972205,51.1745296 C44.2464741,51.1481584 44.3843994,51.1238066 44.5496713,51.0945844 C44.4955744,51.1645117 44.4554687,51.2163434 44.3924285,51.297912 C44.5284459,51.2851619 44.6358051,51.2751044 44.7881192,51.2608101 C44.4671149,51.6379262 44.0760746,51.4313122 43.7233912,51.5066642 L43.7233912,51.5066642 Z M43.5277916,51.9594886 L43.8266166,51.9594886 L43.8266166,51.7794438 L43.5277916,51.7794438 L43.5277916,51.9594886 Z M44.9076015,44.7678323 C44.9731459,44.7563097 45.0610286,44.796896 45.1204518,44.839185 C45.283935,44.9554004 45.3342957,45.0836927 45.3589791,45.3884662 C45.704667,45.4416442 46.1134348,45.1316836 46.3911536,45.5505739 C46.3224295,45.6077115 46.2376471,45.6781535 46.1484925,45.7522779 C46.0166883,45.6805689 45.896093,45.6201448 45.7807843,45.5508906 C45.6307358,45.4606901 45.548855,45.5543355 45.471903,45.6583553 C45.4455502,45.6940316 45.4347387,45.740795 45.4139505,45.7809457 C45.2900562,46.0200684 45.1474804,46.0575266 44.9258061,45.9071394 C44.802667,45.823591 44.6822307,45.7360038 44.5254648,45.6254903 C44.6398594,45.5121258 44.7501997,45.4027605 44.86054,45.2933557 C44.8579166,45.2812788 44.855333,45.2692019 44.8527891,45.257125 C44.7303257,45.300285 44.6079418,45.3434451 44.4910829,45.3847046 C44.4663199,45.2150736 44.7194745,44.8008953 44.9076015,44.7678323 L44.9076015,44.7678323 Z M46.5842889,45.7023865 L47.0046631,45.7023865 L47.0046631,45.5242819 L46.5842889,45.5242819 L46.5842889,45.7023865 Z M48.4805836,48.887006 C48.4781192,48.9085861 48.4755754,48.9301661 48.473111,48.9517461 C48.365712,48.9897191 48.2583131,49.027692 48.145111,49.067724 C48.0930014,48.9292554 48.1653029,48.8749687 48.284189,48.8650696 C48.3485807,48.8596845 48.415079,48.8788888 48.4805836,48.887006 L48.4805836,48.887006 Z M48.6095657,50.0116625 C48.449461,49.920868 48.2893165,49.8300735 48.1291323,49.7392393 C48.1396258,49.718768 48.1501192,49.6982966 48.1605729,49.6778253 C48.5193776,49.6598881 48.5193776,49.6598881 48.6095657,50.0116625 L48.6095657,50.0116625 Z M43.0279612,50.9986028 C43.0051061,50.8040261 43.0051061,50.8040261 43.3219767,50.8349905 C43.3043286,51.0923275 43.1162811,50.9177865 43.0279612,50.9986028 L43.0279612,50.9986028 Z M42.1004033,45.850477 C41.9796093,45.7208384 41.955999,45.5586119 42.0581115,45.4767662 C42.1467891,45.4056907 42.3155589,45.4336853 42.4489132,45.4179259 C42.4509006,45.4347544 42.452888,45.4515829 42.4548357,45.4684114 C42.5173592,45.3659755 42.5798827,45.2635792 42.6465797,45.1542931 C42.7049694,45.2646483 42.7516335,45.3527899 42.8150712,45.4725294 C42.5714164,45.6013761 42.3388114,45.7243229 42.1004033,45.850477 L42.1004033,45.850477 Z M49.4811187,45.9278088 C49.0579622,45.4524144 48.6187872,44.9911956 48.1855346,44.52475 C48.1686418,44.5065752 48.1421299,44.4972701 48.1202288,44.4836885 C47.3470916,44.0056808 46.5308279,43.871449 45.6572477,44.1704018 C45.2653727,44.3044752 44.8727823,44.375432 44.4553097,44.2550193 C44.1701978,44.1728172 43.8716907,44.1160359 43.5759263,44.0961982 C43.1802356,44.0697082 42.7809675,44.0786174 42.3841638,44.0945351 C42.1521154,44.1038403 41.9050422,44.1152044 41.695014,44.2000199 C41.4279079,44.3079597 41.183776,44.4803624 40.9460039,44.647974 C40.8641629,44.7057055 40.803746,44.8266725 40.7825206,44.9289104 C40.750603,45.0823861 40.8314106,45.2545116 40.6864101,45.393495 C40.6595405,45.4192326 40.674287,45.5247174 40.7054493,45.5677191 C40.8816122,45.8108806 40.8569287,46.0865111 40.8559748,46.3605182 C40.8542656,46.8554732 40.8504498,47.3504282 40.8574852,47.8452644 C40.8614203,48.1200634 40.8774784,48.3952979 40.9021619,48.669107 C40.9472758,49.1688136 41.0030422,49.6675698 41.0540388,50.166722 C41.0851614,50.4712975 41.112985,50.7761898 41.1473272,51.0804485 C41.1931963,51.4868264 41.2770645,51.8918975 41.2860872,52.2988297 C41.3069947,53.2420159 41.2915327,54.1859941 41.2953883,55.1296555 C41.2956267,55.1949895 41.3337053,55.2602048 41.3691604,55.3731733 C41.3579118,55.4022371 41.3052457,55.4843204 41.2961832,55.5709177 C41.2609268,55.9072099 41.227459,56.2445713 41.2163296,56.5822493 C41.2040475,56.9568709 41.5335977,57.2777997 41.9130712,57.272327 C42.3941406,57.2651288 42.8757663,57.2585954 43.3558817,57.2303236 C43.6865448,57.2108422 44.0145448,57.1497449 44.3446912,57.1175927 C44.4967668,57.102744 44.5255841,57.0221257 44.5100029,56.8933187 C44.4563034,56.4484531 44.3934222,56.0043399 44.3549462,55.5581677 C44.3038701,54.9661223 44.2719922,54.3723743 44.2327213,53.7792995 C44.217617,53.5509866 44.2074813,53.3223174 44.190509,53.094163 C44.1605788,52.6911112 44.1270712,52.2882971 44.093683,51.8686544 C44.6406941,51.9032221 45.1506999,51.9523216 45.6614212,51.961706 C45.9870761,51.9676454 46.3140029,51.9175164 46.639936,51.8875815 C47.2775327,51.8289789 47.869459,51.6281459 48.4116209,51.2918141 C49.123109,50.8503539 49.654221,50.2512999 49.9419563,49.4599263 C50.2170916,48.702962 50.2212254,47.9291295 50.0223267,47.1553763 C49.9100785,46.7185884 49.7907154,46.2757027 49.4811187,45.9278088 L49.4811187,45.9278088 Z M1.42045377,8.89472254 C1.7179671,8.67476455 2.06695401,8.52382307 2.42639463,8.32259418 C2.46252551,9.18041056 1.75135537,10.078932 0.928692259,10.7687805 C0.5130878,9.98386108 0.706978251,9.42226536 1.42045377,8.89472254 L1.42045377,8.89472254 Z M4.12347267,9.03631926 C4.64719153,8.39616428 5.18215905,7.76519567 5.71195934,7.12999024 C5.84924872,6.96546721 5.98216583,6.7973409 6.11738832,6.63060046 C6.31306743,6.77568167 6.49237039,6.9139127 6.67878823,7.04196745 C6.71265347,7.06525013 6.79306355,7.06810107 6.82215904,7.04430364 C7.18016874,6.75089432 7.53225599,6.45027846 7.88700635,6.15290951 C7.94575381,6.10365159 8.01006597,6.06104586 8.10295691,5.99226692 C8.10295691,6.20953236 8.1088396,6.3970609 8.09874363,6.58367873 C8.09627926,6.6291354 8.05048963,6.68492672 8.00907228,6.7137133 C7.3970335,7.13941419 6.78245085,7.5615118 6.16818619,7.98408456 C5.44199133,8.48359313 4.71555798,8.98282453 3.98880665,9.48158076 C3.97409991,9.49167785 3.95466317,9.49500394 3.94412997,9.49900318 C3.84937088,9.28419272 4.01865735,9.1644928 4.12347267,9.03631926 L4.12347267,9.03631926 Z M7.83509554,4.95484127 L8.09476883,4.95484127 L8.09476883,4.06594172 L7.83509554,4.06594172 L7.83509554,4.95484127 Z M8.13169467,27.9401943 C8.31513141,27.8223951 8.50886287,27.7205135 8.76551532,27.5751947 C8.72370049,27.9057455 8.6945255,28.1828411 8.65159772,28.4578381 C8.62683476,28.6162237 8.55270485,28.77061 8.549684,28.9277681 C8.54574896,29.1287594 8.44427247,29.1398464 8.27315759,29.1120894 C8.20359869,28.7727482 8.13125744,28.4396633 8.07095982,28.1044798 C8.0617383,28.0533213 8.09127101,27.9662092 8.13169467,27.9401943 L8.13169467,27.9401943 Z M8.89270873,9.39070703 C8.90483185,8.8434452 8.89668352,8.29574782 8.89668352,7.74824841 L8.89668352,7.54812821 L9.1604906,7.54812821 C9.43089583,8.65678778 9.70122157,9.76449703 9.97114983,10.8722855 C10.1330034,11.5363963 10.3164799,12.1964682 10.446098,12.8668353 C10.5070713,13.1820622 10.4886283,13.5193443 10.4617586,13.8429657 C10.4280126,14.2489872 10.3277286,14.6496631 10.2976792,15.0557242 C10.2820185,15.2672878 10.2917965,15.3294541 10.0007223,15.2948468 C9.95071939,14.9815601 9.90981876,14.6674419 9.84840819,14.3573625 C9.78493073,14.0367109 9.64311008,13.749241 9.44472811,13.4858062 C9.38351629,13.4044752 9.3399128,13.2880222 9.3388396,13.1871701 C9.33025405,12.3956777 9.31904513,11.603631 9.34106549,10.8126929 C9.35008827,10.4881608 9.29118182,10.2068284 9.07829186,9.96647826 C8.92899859,9.7978768 8.88781973,9.61117978 8.89270873,9.39070703 L8.89270873,9.39070703 Z M9.98744648,4.7500487 C10.253082,4.70867046 10.2455299,4.70997714 10.2912797,4.98006418 C10.4175589,5.725308 10.5569152,6.46841361 10.6761193,7.21476613 C10.7000078,7.36416334 10.6659836,7.5252019 10.6441619,7.67883593 C10.5896675,8.0628418 10.526826,8.44569938 10.4657732,8.83905 L10.2230325,8.83905 C10.1077635,7.48025999 9.88275041,6.12519203 9.98744648,4.7500487 L9.98744648,4.7500487 Z M10.2189782,3.45116803 L10.474478,3.45116803 L10.474478,2.16420588 L10.2189782,2.16420588 L10.2189782,3.45116803 Z M9.9832332,20.4827274 L10.2390907,20.4827274 L10.2390907,20.0256266 L9.9832332,20.0256266 L9.9832332,20.4827274 Z M9.97905967,23.4885692 L10.2368251,23.4885692 L10.2368251,22.8317442 L9.97905967,22.8317442 L9.97905967,23.4885692 Z M10.8771644,35.7992084 L9.96824823,35.7992084 C10.0576811,35.5752907 10.1428212,35.3620641 10.2272458,35.1506194 C10.562003,35.123377 10.8973563,35.4521855 10.8771644,35.7992084 L10.8771644,35.7992084 Z M11.0947048,20.8527162 L11.3150277,20.8527162 C11.3444809,21.1946311 11.375365,21.5304085 11.4018769,21.8665028 C11.4556956,22.5488675 11.5077654,23.2314302 11.5591993,23.9139533 C11.5753767,24.1287638 11.588096,24.3437722 11.6008154,24.5587807 C11.6281619,25.0216626 11.6508978,25.4848613 11.6825769,25.9473868 C11.7003045,26.2057533 11.7320631,26.4630903 11.7575812,26.7214568 C11.2704305,26.8689534 11.4465934,27.3346862 11.2916559,27.6501507 L11.0947048,27.6501507 L11.0947048,20.8527162 Z M11.293524,10.1262893 C11.4663878,10.0935035 11.5516869,10.1111635 11.5708852,10.3195198 C11.6040349,10.6792134 11.7221261,11.031661 11.7485982,11.3912359 C11.7724072,11.7142237 11.7215299,12.0427154 11.7020931,12.3687126 C11.6997877,12.4069627 11.6827359,12.4445397 11.6814242,12.4827502 C11.6668367,12.9019969 11.6576152,13.3215207 11.6398876,13.7406486 C11.6169133,14.2833964 11.5857111,14.8257879 11.5619021,15.3684961 C11.5537935,15.5532133 11.4412671,15.5555099 11.293524,15.5293763 L11.293524,10.1262893 Z M11.293683,6.02267695 L11.5057383,6.02267695 L11.5057383,4.73270548 L11.293683,4.73270548 L11.293683,6.02267695 Z M11.7117519,29.1742953 C11.6787611,29.5172001 11.6362705,29.859115 11.6018886,30.201901 C11.583684,30.3834505 11.5914746,30.5698704 11.5512497,30.7458368 C11.5365032,30.8102601 11.4170209,30.8509256 11.3074358,30.9296037 C11.2224547,30.5720482 11.1065895,30.2806583 11.0976859,29.9860215 C11.0904121,29.7454734 11.2093379,29.5006488 11.2751207,29.2584772 C11.347462,28.9919935 11.4230228,28.7263808 11.4992196,28.4531657 L11.7648154,28.4531657 C11.7471673,28.698307 11.7345672,28.9367565 11.7117519,29.1742953 L11.7117519,29.1742953 Z M11.9589046,31.4643134 L12.225812,31.4643134 L12.225812,35.1702196 L11.9457082,35.1702196 C11.7214504,33.943444 11.6431072,32.7134214 11.9589046,31.4643134 L11.9589046,31.4643134 Z M12.5639874,31.0538176 L12.8593146,31.0538176 L12.8593146,27.1495335 L12.5639874,27.1495335 L12.5639874,31.0538176 Z M13.4781901,38.2137968 C13.9636714,38.1107669 14.4369899,38.031099 14.8970723,37.9038757 C15.1210917,37.8419074 15.312796,37.6716825 15.5332778,37.586867 C15.697079,37.5238691 15.8835764,37.5194343 16.0792157,37.485619 L16.0792157,38.6083749 C15.2138633,38.5373785 14.3500214,38.466501 13.4781901,38.3950295 L13.4781901,38.2137968 Z M16.9382482,38.3727763 L17.3942763,38.3727763 L17.3942763,37.0515237 L16.9382482,37.0515237 L16.9382482,38.3727763 Z M6.98226375,36.8705681 C6.64528071,36.9015325 6.3145381,36.9288144 5.98455071,36.9631841 C5.66092298,36.996841 5.33809021,37.0382589 5.01478047,37.0751627 C4.88901799,37.089457 4.77358997,37.0931395 4.67433937,36.9787851 C4.57655944,36.8660937 4.45230738,36.7761703 4.33966171,36.676229 C4.34983719,36.6592421 4.36005241,36.6421365 4.37022788,36.6251101 L6.98226375,36.6251101 L6.98226375,36.8705681 Z M5.50725745,39.0337194 C4.98234615,38.961258 4.46657689,38.8901428 3.90000975,38.8119796 C4.06818329,38.6512578 4.20368401,38.5190058 4.34327878,38.3911094 C4.36935343,38.3672328 4.41176448,38.3490977 4.44678241,38.3488205 C4.7961668,38.345732 5.14563069,38.3469199 5.50725745,38.3469199 L5.50725745,39.0337194 Z M3.77190214,37.5414895 L1.98964427,37.5414895 L1.98964427,36.8419399 C2.31581586,36.8419399 2.64747267,36.8761908 2.96879502,36.8334663 C3.39533016,36.7768039 3.54855847,37.0889027 3.75671843,37.3345983 C3.79034519,37.3743135 3.76772861,37.4613068 3.77190214,37.5414895 L3.77190214,37.5414895 Z M2.18969565,39.2894329 C2.13321383,39.0959253 2.08476109,38.8898657 2.01118765,38.693032 C1.96742517,38.5759454 2.00927975,38.5603444 2.10725842,38.5430408 C2.43816002,38.4844381 2.76771019,38.4182726 3.11538542,38.3515922 C3.18935634,38.6657105 3.26141935,38.9715926 3.33626472,39.2894329 L2.18969565,39.2894329 Z M0.319316594,11.0336408 C0.352704863,11.3983632 0.420435353,11.7645903 0.519208983,12.117315 C0.608840587,12.4374123 1.00512755,12.6426801 1.31881829,12.3459446 C1.48671359,12.1871235 1.68648673,12.05895 1.88168886,11.9318851 C2.69624339,11.4018081 3.51902575,10.884204 4.3302812,10.3492566 C5.4801096,9.59098561 6.61324387,8.80923391 7.64788275,7.89578459 C7.78632482,7.77351091 7.9294969,7.65658275 8.07052259,7.53716001 C8.09711396,7.69035848 8.07080083,7.82276883 8.06575284,7.95597112 C8.03574314,8.74948295 8.01153665,9.54319276 7.9834746,10.3367442 C7.97329913,10.6249268 7.9555318,10.912753 7.94511784,11.2008564 C7.91717504,11.9744908 7.86959675,12.7480857 7.86828507,13.5217597 C7.86089196,17.9690688 7.8609317,22.4164571 7.8717034,26.8637662 C7.87257785,27.2271424 7.83457882,27.5313219 7.51643631,27.7566254 C7.46110718,27.7958259 7.43193219,27.9170701 7.44167043,27.9939663 C7.47819879,28.2827032 7.53809894,28.5684308 7.5851605,28.8559403 C7.6825827,29.4508762 7.7761096,30.046406 7.8735318,30.6412627 C7.97516728,31.2617778 8.07962487,31.8818179 8.18265153,32.5020954 C8.26651968,33.0071079 8.34883766,33.5123976 8.43405725,34.017212 C8.53410281,34.609693 8.63653325,35.2017779 8.74134857,35.8138986 C8.13702089,35.8138986 7.54855264,35.8182146 6.96020364,35.8110081 C6.80832676,35.8091471 6.67998066,35.8387652 6.5653476,35.9386273 C6.27538638,36.1911731 5.94353083,36.2648224 5.55471649,36.2578535 C4.2966147,36.2353627 3.03787694,36.2521912 1.77937767,36.2456578 C1.63191281,36.2449054 1.55531853,36.2792751 1.51008537,36.4257422 C1.34250806,36.9681733 1.15942905,37.5058132 0.993481401,38.0486798 C0.971977765,38.1189634 0.994793083,38.2221912 1.03414354,38.2882776 C1.35216681,38.8217995 1.67905387,39.3500946 2.00109168,39.8764891 L7.37405919,39.8764891 C7.40005434,39.6464341 7.43030252,39.4292082 7.20334179,39.2638537 C7.65984688,39.271575 8.10089002,39.3082808 8.54256912,39.3343748 C9.28358997,39.3782477 10.0247698,39.4432253 10.7663471,39.4497983 C12.6340631,39.4663892 14.5020175,39.4555398 16.3699322,39.4550647 C16.6281348,39.4550251 16.9169433,39.5231705 17.1360737,39.4300397 C17.362478,39.3338601 17.5252458,39.0832941 17.7067349,38.8917267 C17.7549889,38.8407661 17.7954125,38.758762 17.7962075,38.6905374 C17.8031634,38.1033228 17.8024082,37.516029 17.7988309,36.9288144 C17.7978372,36.7642914 17.7252574,36.6367118 17.5499293,36.6037676 C17.2508658,36.5475407 16.9518818,36.4833549 16.6497974,36.4539744 C16.4969666,36.4391258 16.4377819,36.4057064 16.4462482,36.2474792 C16.4592458,36.0037238 16.2891246,35.8005942 15.997335,35.8067713 C15.0836491,35.8261339 14.1693272,35.8138986 13.2552439,35.8138986 L13.036352,35.8138986 C12.9328881,34.7872036 12.7757247,33.7864046 12.8433757,32.7723013 C13.2752768,32.7329424 13.4005226,32.6441277 13.4604227,32.3300491 C13.47505,32.2533905 13.4674581,32.1722574 13.4674581,32.0931834 C13.4676966,29.8101343 13.4665042,27.5270851 13.4694853,25.244036 C13.4697635,25.0222961 13.4905914,24.8001207 13.5105449,24.5788957 C13.5597131,24.033772 13.6158769,23.4892424 13.6629782,22.9439604 C13.6673108,22.8936729 13.639368,22.829408 13.605463,22.789178 C13.4955202,22.6584307 13.3757994,22.5358007 13.2424053,22.3911154 C12.582033,22.8418016 12.6669346,23.5306602 12.5737257,24.1621436 L12.394542,24.1621436 L12.394542,23.8199911 C12.394542,17.023586 12.3937073,10.2272205 12.3993117,3.43081548 C12.3994707,3.26078855 12.3289976,3.16433172 12.2120194,3.07040906 C11.6081687,2.58559076 11.1479671,2.00249419 10.9644508,1.23468042 C10.918542,1.0425587 10.8852729,0.847427644 10.8454455,0.65 C10.4683568,0.720996343 10.5049647,1.00941651 10.4713777,1.33462173 C10.3312264,1.27289095 10.2162356,1.23095836 10.1099894,1.17310802 C9.9880427,1.10666527 9.86800392,1.01792974 9.73969757,1.14158929 C9.49234615,1.3800784 9.25457397,1.62846661 9.00805725,1.86786643 C8.9414397,1.93256695 8.86484542,1.9968715 8.78054004,2.0321123 C8.18185657,2.28236154 7.78457591,2.68778906 7.70186045,3.35649304 C7.68667674,3.47940027 7.66497436,3.6439629 7.58245764,3.70937615 C6.84493461,4.29421496 6.09445376,4.86277965 5.34508585,5.43269061 C4.58514499,6.01060005 3.82210379,6.58451025 3.06053326,7.16032108 C2.24204369,7.77925239 1.42665445,8.40238092 0.603355372,9.01485801 C0.374009759,9.1854789 0.232904572,9.36045538 0.264742672,9.67667222 C0.309975828,10.1262893 0.278058232,10.5833902 0.319316594,11.0336408 L0.319316594,11.0336408 Z M31.0245206,38.0530354 C31.509048,38.0819408 31.992224,38.1108461 32.5193214,38.1423253 C32.4907426,38.2122129 32.4746844,38.2983747 32.4519884,38.3001565 C32.0296268,38.3333383 31.6162482,38.5060974 31.1810082,38.365055 C31.0253951,38.3146092 30.954922,38.2526804 31.0245206,38.0530354 L31.0245206,38.0530354 Z M26.6944993,35.4542445 C27.9045061,35.9730762 28.9636297,36.7454435 30.0538759,37.4653852 C28.7404052,37.1203818 27.591809,36.4984412 26.6944993,35.4542445 L26.6944993,35.4542445 Z M27.0006379,37.0604725 C26.5803035,36.779734 26.1941522,36.4464115 25.8060931,36.1205331 C25.6418149,35.9826189 25.5043665,35.8109289 25.3667194,35.6447824 C25.3240301,35.5932279 25.3206515,35.5094023 25.3321387,35.4112033 C26.2916539,35.9934287 27.1606234,36.6887811 28.0710102,37.3344003 C27.6753989,37.384371 27.3101949,37.2671657 27.0006379,37.0604725 L27.0006379,37.0604725 Z M24.4189695,32.700909 C24.4782337,32.7368625 24.5453282,32.7538889 24.5680243,32.7951088 C24.7830209,33.1854105 24.9916578,33.5792363 25.1985061,33.9738936 C25.2233485,34.0213301 25.2266079,34.0799327 25.2497014,34.1731031 C24.6555095,33.8178838 24.3473834,33.2672562 24.4189695,32.700909 L24.4189695,32.700909 Z M26.3222201,32.3388395 C26.5295453,32.8358535 26.7337305,33.3290266 26.941016,33.8209723 C27.0722637,34.132398 27.0921377,34.4566529 26.7930344,34.6260859 C26.7050722,34.2483362 26.6321348,33.8582325 26.5209995,33.4792554 C26.4099438,33.100397 26.26073,32.7326257 26.1207378,32.3388395 L26.3222201,32.3388395 Z M29.8818468,34.8405004 C30.0791556,34.9024687 30.2799225,34.9548152 30.4736142,35.0262867 C30.5328386,35.0481439 30.573779,35.1192194 30.6230664,35.1678042 C30.611778,35.185187 30.6005293,35.2025698 30.5892409,35.2199527 C29.975016,35.2199527 29.3606321,35.2131817 28.7465662,35.2235955 C28.5300989,35.227278 28.3715444,35.193819 28.2333408,34.9944116 C28.0744285,34.7650692 27.8505681,34.581144 27.6639118,34.36962 C27.6112458,34.3099086 27.5900601,34.2225194 27.5323461,34.1014732 C28.3573941,34.3611068 29.1194813,34.6012193 29.8818468,34.8405004 L29.8818468,34.8405004 Z M32.0276394,36.3614772 C32.3284518,36.365912 32.6299399,36.3330866 32.9309908,36.3140803 C33.0584624,36.3060027 33.1855763,36.291352 33.3582414,36.275553 C33.0475715,36.6114097 32.9631071,36.9745879 32.9876316,37.3920923 C32.574412,37.2589692 32.1774096,37.1297662 31.7794532,37.0032557 C31.1079515,36.7898707 30.4352971,36.5799702 29.7648289,36.3634175 C29.6883539,36.3387489 29.5472487,36.3370858 29.6406961,36.1501908 C29.9607465,36.1788982 30.2918071,36.2083184 30.6228279,36.2382136 C30.7985138,36.2540918 30.9740805,36.2711182 31.1497664,36.2870756 C31.442351,36.3136844 31.734697,36.3572008 32.0276394,36.3614772 L32.0276394,36.3614772 Z M34.2233156,36.8653018 C34.7144411,37.1325775 35.2205914,37.0665307 35.7086166,37.0820129 C35.7613223,37.2333899 35.6731614,37.2691851 35.5670344,37.2775003 C35.1885943,37.3070788 34.8097964,37.3314702 34.4311973,37.3588313 C34.3859641,37.3621178 34.3403335,37.3678593 34.2963723,37.3785503 C33.9766001,37.4559613 33.8271876,37.4005659 33.6493951,37.1265192 C33.5968483,37.0455446 33.5586108,36.9552648 33.5069782,36.8560758 C33.7622395,36.7843668 34.0137247,37.1382002 34.2233156,36.8653018 L34.2233156,36.8653018 Z M37.0929578,38.0506596 C37.1046437,38.0732691 37.1162899,38.0958391 37.1279758,38.1183694 C37.0163238,38.2796852 36.6661444,38.1115985 36.6378439,38.4428619 C36.56908,38.3418515 36.5003558,38.2408015 36.4212574,38.1245465 C36.6160223,38.1031248 36.8545099,38.0768724 37.0929578,38.0506596 L37.0929578,38.0506596 Z M37.9593039,38.0362069 C38.3006195,37.9883349 38.6437237,37.9535296 38.985874,37.9113595 C39.5019215,37.8477281 40.0175317,37.7802162 40.5336587,37.7172579 C40.6737702,37.7001919 40.8151139,37.6936189 40.9551459,37.6822943 C40.99708,37.9875429 40.9928269,37.978119 40.7008386,37.9947099 C40.1985041,38.0232193 39.6974018,38.0727148 39.1954251,38.1087079 C38.9338042,38.1274766 38.6713883,38.1341288 38.4095686,38.1499674 C38.2219981,38.1613315 38.034825,38.1789915 37.847493,38.1938402 C37.8383509,38.175903 37.8291692,38.1580054 37.8200271,38.1401475 C37.866254,38.1041543 37.9089433,38.0432551 37.9593039,38.0362069 L37.9593039,38.0362069 Z M40.2893282,37.0826464 C40.5517838,36.9981081 40.817141,36.9225978 41.0816238,36.8442365 C41.2030935,36.8081642 41.3248017,36.7726066 41.4463509,36.7368907 C41.4593883,36.755501 41.4724653,36.7741905 41.4855027,36.79288 C41.3931284,36.9235877 41.3040533,37.0568296 41.2059554,37.1830233 C41.1822259,37.2136313 41.1286854,37.2360825 41.0884605,37.236716 C40.7922986,37.2411508 40.4960572,37.2390918 40.1998158,37.2390918 C40.1877324,37.2214714 40.1756888,37.2038114 40.1636054,37.1861118 C40.2052215,37.1506731 40.2412729,37.0981286 40.2893282,37.0826464 L40.2893282,37.0826464 Z M37.9434445,39.053874 C37.5012487,39.1476778 37.055396,39.1582897 36.6132797,39.0541907 C36.5540155,39.0402924 36.5094581,38.9644257 36.458064,38.9172268 C36.4689152,38.901903 36.4797266,38.8865792 36.490538,38.8712158 L38.0463519,38.8712158 C38.0631255,38.8863812 38.0798992,38.901507 38.0966728,38.9166328 C38.0459544,38.9639901 38.0016752,39.0415199 37.9434445,39.053874 L37.9434445,39.053874 Z M24.0272138,34.1322396 C23.7416248,34.1988011 23.564508,33.9341784 23.6614135,33.4086154 C23.8226311,33.4355805 24.0379457,33.8615586 24.0272138,34.1322396 L24.0272138,34.1322396 Z M23.5281784,33.2409642 C23.5575919,33.1196805 23.4361619,32.9591171 23.660857,32.94019 C23.6334309,33.0432594 23.7953243,33.2288477 23.5281784,33.2409642 L23.5281784,33.2409642 Z M23.4418856,32.0800374 C23.4401765,32.1187231 23.3987194,32.1707528 23.3616345,32.1901154 C23.2311818,32.258142 23.0946476,32.3146065 22.9345032,32.3872659 L22.9345032,31.509097 L23.4456219,31.509097 C23.4456219,31.7020106 23.4501532,31.891321 23.4418856,32.0800374 L23.4418856,32.0800374 Z M22.9328735,30.7030727 C23.0299777,30.7062008 23.1246176,30.6981231 23.0711963,30.8571818 L22.8272235,30.8571818 C22.7864818,30.747579 22.8128745,30.699113 22.9328735,30.7030727 L22.9328735,30.7030727 Z M42.0432457,37.4499822 C42.423872,37.2598799 42.7848628,37.0309731 43.1578575,36.8251115 C43.2354852,36.7822682 43.330443,36.770508 43.4173718,36.7444536 C43.4316413,36.7728046 43.445871,36.8011556 43.4601008,36.8295463 C42.936064,37.1659573 42.4119874,37.5023683 41.8698255,37.8504602 C41.8150926,37.639649 41.8665662,37.5382822 42.0432457,37.4499822 L42.0432457,37.4499822 Z M45.8071769,26.294568 C45.7053029,26.0358847 45.612094,25.7737962 45.5169375,25.51246 C45.5386796,25.4967798 45.5604614,25.4810204 45.5822433,25.4653006 C45.631968,25.4873954 45.7140475,25.498324 45.7262104,25.5333273 C45.8119864,25.7797356 45.8833737,26.0311332 45.9670829,26.3061698 C45.8876267,26.3014578 45.8136956,26.3111589 45.8071769,26.294568 L45.8071769,26.294568 Z M41.2700688,21.2348214 C40.8096684,21.0511733 40.3480359,20.8705345 39.8911333,20.6786108 C39.8516636,20.6620595 39.8231643,20.5697207 39.8270994,20.5152361 C39.8306767,20.464909 39.8739224,20.3985059 39.9188376,20.3740749 C40.007237,20.3260445 40.108952,20.3021282 40.2091963,20.2667686 C40.5682394,20.5805305 40.9288328,20.8956387 41.2894261,21.2107468 C41.2829472,21.2187849 41.276508,21.2267833 41.2700688,21.2348214 L41.2700688,21.2348214 Z M41.1825439,17.342337 C40.8691711,17.6506742 40.5822307,17.9590509 40.2632933,18.2300487 C40.1744964,18.3054798 39.9910199,18.2703578 39.8424023,18.2869091 C39.9439186,17.9569127 40.8607843,17.3038889 41.1825439,17.342337 L41.1825439,17.342337 Z M42.1417014,17.8951028 C42.1909491,18.1188224 42.2344333,18.3164876 42.2805012,18.5258338 C41.8951847,18.7383873 41.5546243,19.0877859 41.0118265,18.9621861 C41.391777,18.6033635 41.7584518,18.2570534 42.1417014,17.8951028 L42.1417014,17.8951028 Z M43.04708,17.6343605 C43.0874241,17.8039122 43.0874241,17.8039122 42.8072011,17.7896575 C42.7879631,17.5504161 42.96508,17.6760951 43.04708,17.6343605 L43.04708,17.6343605 Z M44.8167775,13.4057819 C44.8915434,13.5201363 44.9723907,13.6364705 45.044255,13.7581106 C45.0654804,13.7941037 45.0712835,13.845975 45.066951,13.8888975 C45.0468386,14.0875922 45.0207242,14.285693 44.9942123,14.5046611 C44.8960746,14.4456625 44.8069995,14.4081647 44.7385535,14.3475822 C44.5989588,14.2241206 44.4820998,14.2697753 44.3564566,14.367024 C44.0182016,14.628677 43.678158,14.888073 43.335491,15.1439054 C43.2955841,15.1736423 43.2346902,15.1754241 43.1584139,15.1974001 C43.6308182,14.4807053 44.2254076,13.9235048 44.8167775,13.4057819 L44.8167775,13.4057819 Z M44.2439699,6.17033192 C44.6652186,6.26112647 45.0848376,6.34487285 45.2188279,6.84216402 L45.1588483,6.84030299 C45.0884547,6.97057514 45.0181008,7.10092649 44.9382472,7.24873984 C44.614381,7.27530903 44.2039438,6.67803695 44.2439699,6.17033192 L44.2439699,6.17033192 Z M44.377046,9.20432678 C44.3087988,9.14227922 44.2364178,9.10874107 44.2288657,9.06427432 C44.1862957,8.81331234 44.1592671,8.55965781 44.1236132,8.28081997 C44.3064934,8.35320219 44.4109908,8.78044733 44.377046,9.20432678 L44.377046,9.20432678 Z M38.6992516,20.2823696 C38.7908308,20.0213898 38.9864702,19.9695581 39.2342588,20.0248742 C39.1436335,20.3079489 38.9332477,20.3217284 38.6992516,20.2823696 L38.6992516,20.2823696 Z M37.3271527,18.1516082 C37.1521028,18.1969065 36.9757809,18.25935 36.7978294,18.2669525 C36.3964149,18.2839394 35.9937683,18.2722584 35.5797935,18.2722584 L35.5797935,18.0440248 L37.4262443,18.0440248 C37.3789443,18.0971632 37.3580766,18.1435702 37.3271527,18.1516082 L37.3271527,18.1516082 Z M35.8154988,19.5081808 C35.80584,19.541125 35.7221309,19.5803651 35.6812302,19.5724062 C34.9639787,19.4334624 34.2475221,19.2900839 33.5330131,19.1379941 C33.4805856,19.1267883 33.4441764,19.0409433 33.369808,18.9542668 L35.9454746,18.9542668 C35.9015531,19.1499522 35.8671314,19.3315413 35.8154988,19.5081808 L35.8154988,19.5081808 Z M33.6738003,19.8213092 C33.2187659,19.8213092 32.7631352,19.8352075 32.3089753,19.8158449 C32.0593185,19.8051538 31.8057664,19.7602911 31.5655298,19.6911162 C31.3121367,19.61814 31.1051692,19.4632785 31.0041697,19.1579507 C31.9267591,19.3258394 32.8644925,19.3170886 33.6919254,19.7595388 C33.6858837,19.7801289 33.679842,19.8007586 33.6738003,19.8213092 L33.6738003,19.8213092 Z M43.392887,5.87620987 C43.3761532,6.00165127 43.3319535,6.12344979 43.2944314,6.26484853 C43.1303916,6.25780037 42.7979001,5.62825723 42.8141173,5.30388353 C42.9084392,5.34427185 42.9967193,5.36759413 43.0677489,5.41609972 C43.1691061,5.48527463 43.2704236,5.56264599 43.3469384,5.65656865 C43.3896675,5.70903388 43.4024265,5.80473837 43.392887,5.87620987 L43.392887,5.87620987 Z M41.758094,5.74379952 C41.1939118,5.61388373 40.62965,5.48400755 39.9962666,5.33817401 C40.0836723,5.25704099 40.1258051,5.19071702 40.1846321,5.16866183 C40.3354755,5.11211817 40.5091343,5.10221907 40.6458274,5.0248873 C40.9272031,4.86563059 41.1297983,5.01178089 41.3147058,5.17531402 C41.4914251,5.33156141 41.6351139,5.52495022 41.7933504,5.70202532 C41.7815851,5.71596325 41.7698594,5.72990118 41.758094,5.74379952 L41.758094,5.74379952 Z M39.5892874,5.23237243 L39.5892874,5.05957375 L39.8482453,5.05957375 C39.8530945,5.10875247 39.8584605,5.16315793 39.8652574,5.23237243 L39.5892874,5.23237243 Z M38.5736083,2.97917896 C38.541015,2.74472868 38.7128056,2.86197362 38.8238216,2.82004103 C38.8370179,3.09377094 38.6557673,2.93641485 38.5736083,2.97917896 L38.5736083,2.97917896 Z M36.2780058,2.27574894 L35.9210296,2.27574894 L35.5778061,2.27574894 L35.5778061,2.01263087 L36.2780058,2.01263087 L36.2780058,2.27574894 Z M33.4377373,4.41082635 C33.3364595,4.43347549 33.2707164,4.39665084 33.3190897,4.26459685 L33.6995967,4.26459685 C33.703174,4.50439264 33.5309065,4.39003824 33.4377373,4.41082635 L33.4377373,4.41082635 Z M29.1092661,6.65839713 C29.2970354,6.50872275 29.3305032,6.1969803 29.6375162,6.18074578 C29.443745,6.32412434 29.4203335,6.64964633 29.1092661,6.65839713 L29.1092661,6.65839713 Z M27.3182637,4.87414381 C27.2663529,4.64460349 27.4393757,4.56984549 27.8305749,4.62037049 C27.8597499,4.79883146 27.6380359,4.90863228 27.3182637,4.87414381 L27.3182637,4.87414381 Z M26.6656025,10.4414767 C26.4417421,10.3654912 26.2423267,10.2977813 26.0404072,10.22924 C26.2762715,9.91132048 26.956478,9.36655323 27.1353039,9.37007731 C26.9771469,9.7308005 26.8228851,10.0826937 26.6656025,10.4414767 L26.6656025,10.4414767 Z M25.7179719,9.6604377 C25.4482821,9.88526605 24.8211391,9.69852943 24.6871886,9.41363334 C24.6164372,9.26308784 24.60181,9.08640871 24.5486273,8.86716345 C24.8359651,8.95993781 25.0502065,9.02942949 25.2646864,9.09828763 C25.4074212,9.14414026 25.5394242,9.14382348 25.6701154,9.0480398 C25.8423035,8.92184607 26.0245478,8.80911513 26.2042482,8.69329566 C26.2615647,8.65635222 26.3245255,8.62792201 26.4048561,8.58488072 C26.2726147,9.03901182 25.9098352,9.50054744 25.7179719,9.6604377 L25.7179719,9.6604377 Z M23.8638895,7.60510743 C24.167524,7.12246693 24.4274358,6.6312736 24.8540107,6.23934845 C24.9304857,6.74432132 24.3044557,7.62225267 23.8638895,7.60510743 L23.8638895,7.60510743 Z M23.1829675,8.42107042 C23.3455366,8.27100007 23.4562744,8.09297466 23.6671372,7.99350851 C23.7012409,8.34175883 23.5373204,8.48252403 23.1829675,8.42107042 L23.1829675,8.42107042 Z M26.5160708,6.99496652 C26.6564208,7.587883 25.8467155,8.40202455 25.3288396,8.44664969 C25.2256142,7.87456092 25.8028735,7.31553897 26.5160708,6.99496652 L26.5160708,6.99496652 Z M26.17873,4.48352534 C26.2041687,4.75472107 26.0082511,4.59186109 25.9330083,4.64507865 C25.9069336,4.39471062 26.0755841,4.53139739 26.17873,4.48352534 L26.17873,4.48352534 Z M26.5399593,5.05585169 L26.5399593,5.16414784 C26.3600204,5.29311331 26.2160931,5.39626193 26.0722055,5.49933135 C26.0598837,5.48313642 26.0475618,5.4669415 26.03524,5.45074657 C26.2126748,5.33599621 26.1754309,4.9864392 26.5399593,5.05585169 L26.5399593,5.05585169 Z M46.0428027,15.23862 C45.9471692,15.5495309 45.7412351,15.7675883 45.5332341,15.7670744 C45.7245409,15.6055598 45.7561008,15.3228019 46.0428027,15.23862 L46.0428027,15.23862 Z M46.2246893,6.9303848 C46.239237,6.9963524 46.2734202,7.05804359 46.2877295,7.09435348 C46.1691614,6.98855191 46.0337799,6.86786208 45.8886602,6.73838186 C46.1724605,6.68179861 46.1700358,6.68227376 46.2246893,6.9303848 L46.2246893,6.9303848 Z M46.4149627,8.33364157 C46.6544042,8.76500474 46.9060882,9.20131745 46.8507988,9.71670418 C46.8110906,10.0873265 46.7178022,10.4522865 46.6491973,10.8157022 C46.4646476,10.864485 46.4722394,10.7190474 46.4626999,10.6353406 C46.4016073,10.0987302 46.350889,9.56093195 46.2996539,9.02325245 C46.2773553,8.7895941 46.2620126,8.55522302 46.239078,8.26561496 C46.3307368,8.29939069 46.3978313,8.30279598 46.4149627,8.33364157 L46.4149627,8.33364157 Z M47.1992293,11.0712574 C47.4818769,11.5607085 47.3191488,11.999001 47.2201367,12.43274 C47.1526447,12.7284063 47.0734668,13.0288637 46.8345817,13.2441494 C46.7499583,13.320412 46.6414464,13.3703431 46.5437857,13.4322718 C46.5233553,13.4102958 46.5029248,13.388399 46.4824944,13.366423 C46.6873155,12.6032816 46.7553243,11.7962674 47.1992293,11.0712574 L47.1992293,11.0712574 Z M46.1755211,24.8794323 C46.3063713,24.9895895 46.4371818,25.0997071 46.568032,25.2098643 C46.5505826,25.2297021 46.5332128,25.2495003 46.5157634,25.2693777 C46.3851517,25.1605668 46.1721425,25.1462725 46.1331498,24.9323727 C46.1473,24.9147127 46.1614105,24.8970527 46.1755211,24.8794323 L46.1755211,24.8794323 Z M46.65981,29.017256 C46.7783383,29.4019746 46.809461,29.7901381 46.6608434,30.1748963 C46.6429568,30.2211845 46.5870315,30.2529012 46.5487542,30.2913889 C46.5319806,30.2801039 46.5151275,30.268819 46.4983141,30.257534 L46.4983141,30.0824783 L46.4983141,28.9370337 C46.5145312,28.9255507 46.5307882,28.9141074 46.5470451,28.9026244 C46.5857596,28.9404786 46.6458187,28.9717993 46.65981,29.017256 L46.65981,29.017256 Z M47.4841425,33.940593 L47.4841425,34.734778 L46.6020165,34.734778 C46.90422,34.4725706 47.1157586,34.1548491 47.4841425,33.940593 L47.4841425,33.940593 Z M47.0870606,31.1484134 C47.3960611,31.2909604 47.5051294,31.5203027 47.4962656,31.8324807 C47.484699,32.2405612 47.4779816,32.6500276 47.4996839,33.0572765 C47.5110518,33.2709387 47.4392671,33.3700485 47.2382617,33.3989539 C47.2005807,33.4043786 47.1645293,33.4209299 47.0866233,33.4450837 C47.1194551,33.2709783 47.1468017,33.1213039 47.1760562,32.9720255 C47.2360756,32.6652326 47.14708,32.5446616 46.8244459,32.5133804 C46.9116927,32.0598433 46.9987406,31.6075336 47.0870606,31.1484134 L47.0870606,31.1484134 Z M47.4800087,23.8092209 C47.546666,23.8283063 47.6269171,23.8298506 47.6778739,23.8691302 C48.3190877,24.3639268 48.753334,25.0090709 49.0398371,25.7584328 C49.0505293,25.7863878 49.0412283,25.8218662 49.0412283,25.8618586 C48.9332331,25.8829635 48.8763936,25.8818152 48.8375996,25.7512658 C48.7212176,25.3597366 48.4297062,25.089808 48.1199108,24.8490619 C47.9715715,24.7337968 47.817588,24.8169096 47.7758526,25.015248 C47.7429811,25.1712578 47.7328851,25.3319796 47.7115007,25.4996703 C47.4729336,25.2512821 47.2379437,25.006616 47.0109035,24.7702255 C47.1720019,24.7003378 47.4768289,24.795488 47.5655463,24.5099979 C47.6358206,24.2838233 47.70057,24.0348807 47.4800087,23.8092209 L47.4800087,23.8092209 Z M48.9287814,29.2802157 C48.9054891,29.4675066 48.9243296,29.6599847 48.9243296,29.8622431 L48.6145739,29.8622431 L48.6145739,28.6625514 C48.8598584,28.8134137 48.9630441,29.0056146 48.9287814,29.2802157 L48.9287814,29.2802157 Z M33.2817266,39.4935524 C33.6604052,39.5270905 34.0400776,39.5503336 34.4196306,39.5729035 C35.1277799,39.6149549 35.8362075,39.6514628 36.5443568,39.6935142 C36.9473611,39.7174304 37.3367717,39.6534822 37.7259835,39.552947 C37.9494067,39.4952154 38.2027203,39.3631614 38.383017,39.6568875 C38.401301,39.686664 38.4770606,39.6853573 38.5270237,39.6913364 C38.9025623,39.7362387 39.2472167,39.6309915 39.593143,39.4962449 C40.3976015,39.182879 41.2205826,38.9460134 42.0986941,38.9792743 C42.2574871,38.985293 42.4166776,38.9817293 42.5756297,38.9794723 C42.7736539,38.976661 42.8029481,38.9348076 42.7483345,38.7512387 C42.6842608,38.5359135 42.6231284,38.3197171 42.5540068,38.0806737 C42.6542511,38.0566387 42.7461881,38.0356526 42.8375686,38.0125283 C43.3766301,37.8758415 43.880316,37.6522802 44.3375763,37.3422008 C45.1101968,36.8182217 45.872602,36.2789583 46.6314299,35.735181 C46.9303344,35.5210041 47.2080533,35.2773674 47.4858914,35.0547961 C47.5716277,35.1158933 47.6361784,35.1599245 47.6985031,35.2067275 C47.8840465,35.3461464 47.9463315,35.3269421 48.0050392,35.1086472 C48.1424081,34.5978536 48.2766767,34.0862286 48.4178613,33.5765041 C48.4533165,33.4486078 48.4748201,33.267375 48.564571,33.2140387 C48.7581435,33.0991299 48.8178846,32.9190059 48.8782617,32.7437127 C49.1846388,31.8538628 49.2667581,30.9228723 49.3582579,29.9946535 C49.3738788,29.8365847 49.3630276,29.8355552 49.5014697,29.8616888 C49.5212244,30.2102163 49.5218206,30.5590606 49.567014,30.9020446 C49.5984944,31.14089 49.6861386,31.3732021 49.7586388,31.6052766 C49.7919874,31.7120285 49.8875017,31.7846087 49.9865138,31.713454 C50.0971721,31.633984 50.218443,31.545882 50.1976548,31.3645305 C50.13692,30.8340971 50.1088579,30.2993874 50.0318662,29.7715278 C49.9320989,29.0871436 49.8200494,28.4027595 49.668411,27.7283932 C49.5903858,27.3812912 49.5081871,27.0033436 49.1430625,26.7968879 C49.2996694,26.7393148 49.4501948,26.6806329 49.6029859,26.6285636 C49.8520465,26.5437482 49.875458,26.4997566 49.8274425,26.2529522 C49.745522,25.8316861 49.6215482,25.4257042 49.3901357,25.0607838 C49.0644411,24.5471393 48.6960174,24.0689732 48.2179292,23.681958 C47.9996733,23.5053977 47.7706456,23.3336681 47.5880039,23.1238468 C47.3506689,22.8511068 47.1581299,22.5401167 46.9401919,22.2500731 C46.3698885,21.4912873 45.7460048,20.7866298 44.9222288,20.2854977 C44.4677111,20.0089961 43.9826272,19.8729825 43.4317208,19.9535215 C43.4438836,20.006066 43.4517537,20.056393 43.4672952,20.1042254 C43.6070887,20.5347571 43.9011837,20.8659018 44.178982,21.208965 C44.2683752,21.3193201 44.4243063,21.4061154 44.3738662,21.6233809 C44.1277072,21.3979982 43.9039263,21.1893251 43.6758924,20.9854037 C43.4861357,20.8156539 43.3136694,20.6087231 43.0936248,20.4946063 C42.7465458,20.3146803 42.3639321,20.20385 42.0006757,20.0534233 C41.8461755,19.9894355 41.6902045,19.9157466 41.5575259,19.8164388 C41.4306505,19.7214866 41.4663044,19.5667043 41.5993805,19.4847002 C42.6854135,18.8154418 43.7732351,18.1489553 44.8539816,17.4712629 C45.3669287,17.1495818 45.8175511,16.7481139 46.2241725,16.3012685 C46.3221115,16.1936455 46.3785933,16.0491186 46.4580892,15.9240336 C46.5243887,15.8196179 46.5840106,15.7070454 46.6682365,15.618587 C46.9650344,15.3069633 47.3121134,15.0343025 47.5658643,14.6921897 C48.2765972,13.7342736 48.3679777,12.6366614 48.2021493,11.4949784 C48.1433223,11.0899073 48.0972942,10.6828959 48.0490005,10.2763597 C48.0151352,9.99158238 47.9902928,9.70585477 47.9562685,9.42111706 C47.9101212,9.03461662 47.8554677,8.64906648 47.8145671,8.26205128 C47.8094794,8.21433762 47.8667164,8.16032813 47.8941822,8.10881322 C47.9429132,8.01750392 48.0474105,7.91308822 48.0298817,7.83654838 C47.9339302,7.41639099 47.8203703,6.99916374 47.6891624,6.58846989 C47.5314823,6.09490078 47.2940281,5.63241485 46.9051342,5.28463968 C46.4494241,4.87711354 45.9472486,4.52153788 45.4836684,4.12212901 C45.2759457,3.94315329 45.1132176,3.71234588 44.8935705,3.46368049 C44.7747639,3.46368049 44.5818672,3.45077207 44.3916335,3.46752135 C44.2177363,3.48280556 44.1159418,3.42321298 44.0315569,3.27187554 C43.8315453,2.91336975 43.5618158,2.62700859 43.1563073,2.48810442 C42.9975938,2.43377816 42.8485788,2.35078411 42.6964236,2.27820391 C41.6590024,1.78324893 40.6256752,1.27954314 39.5809801,0.800426719 C39.4151517,0.724362037 39.1986049,0.746575616 39.0057479,0.748713822 C38.9591236,0.749228575 38.8897237,0.844180739 38.8725923,0.907020224 C38.836064,1.04097484 38.826922,1.18229439 38.8042259,1.33648276 C38.3014939,1.17857233 37.8085797,1.02220615 37.3145526,0.869443242 C37.1544081,0.819947743 36.9889772,0.735488625 36.8298265,0.743447501 C36.1766486,0.776074933 35.5251003,0.840498274 34.8725982,0.888726688 C34.2906486,0.93168878 33.7083413,0.969226166 33.1261134,1.00818902 C32.5241706,1.04853775 31.9222278,1.08999518 31.3200465,1.12670104 C30.828126,1.15663592 30.3358081,1.18039376 29.8436491,1.20664617 C29.6871614,1.21500101 29.618795,1.30140035 29.6500766,1.45250021 C29.7260349,1.81971721 29.9343539,1.98966496 30.3168483,1.99746545 C30.3547678,1.99821778 30.3925681,2.00403845 30.4351382,2.0078793 L30.4351382,2.17624319 C30.2067067,2.23587536 29.9838798,2.30089265 29.757873,2.35197201 C28.4773931,2.64138208 27.2173039,2.9874942 26.0934707,3.6967053 C25.6707116,3.96350584 25.277843,4.27243694 25.0758439,4.74949435 C24.9771895,4.98251916 24.9178459,5.23213485 24.8405759,5.4746628 C24.8024974,5.46519926 24.7585361,5.4559337 24.7155686,5.44318366 C24.5498594,5.39424251 24.3957169,5.33223455 24.2569569,5.52202009 C23.8893679,6.02493395 23.4805206,6.49977396 23.1380524,7.01852638 C22.7633485,7.58606156 22.5395676,8.22368237 22.5002172,8.90965038 C22.4952884,8.99608932 22.5706108,9.11871937 22.6461319,9.17090742 C22.7712186,9.25730676 22.9232545,9.31020755 23.0700834,9.35899031 C23.3506641,9.45220024 23.6355376,9.53262052 23.9239089,9.61997018 C23.9239089,10.1066495 23.9217625,10.5814499 23.9249423,11.0561712 C23.9262143,11.2438581 23.9767737,11.27114 24.1453844,11.1876312 C24.5857121,10.9695738 25.0257615,10.7508433 25.4535289,10.5385274 C25.5786554,10.6282133 25.6950771,10.723205 25.822668,10.7997449 C25.9494639,10.8758096 26.0842492,10.9411832 26.2212603,10.9972913 C26.5630529,11.1372646 26.9785778,11.0260383 27.1598682,10.7021794 C27.4379448,10.2054029 27.6816791,9.68938267 27.9351517,9.17918307 C28.026731,8.99486183 28.0683868,8.77415151 28.1949443,8.62091344 C28.6441357,8.07697771 29.1387591,7.56978744 29.5805177,7.02022903 C29.9943335,6.50555504 30.3620814,5.95429397 30.7530819,5.42124725 C30.7834096,5.37990861 30.8337702,5.33575863 30.8810305,5.32736419 C31.0158953,5.30340837 31.1538207,5.29564748 31.2907921,5.28428331 C32.0927067,5.21764257 32.8960524,5.16422703 33.6961784,5.08063903 C34.1206466,5.03629107 34.5365691,4.93817119 34.9096432,4.70348333 C35.0701057,4.60251252 35.1091381,4.47988247 35.0772206,4.29259151 L34.7041464,4.29259151 C34.6937324,4.27299129 34.6832787,4.25335147 34.672825,4.23379085 C34.7145603,4.20104463 34.7543878,4.14260035 34.79819,4.13943263 C35.4328454,4.09413435 36.0680572,4.02531581 36.7031498,4.02531581 C37.3380039,4.02531581 37.9729772,4.09385718 38.6073146,4.14030376 C38.6478177,4.14323389 38.6833126,4.21430942 38.7211129,4.25366825 C38.7055715,4.27762407 38.6900698,4.30154029 38.6745284,4.32553571 C38.3573398,4.29017612 38.040032,4.2552125 37.7228434,4.21929857 C37.6265739,4.20844916 37.5239447,4.16821922 37.436221,4.18975966 C37.334665,4.21470539 37.2463451,4.29294787 37.1124343,4.37146753 C37.1340969,4.4323272 37.1410131,4.57206289 37.2144275,4.63585269 C37.4506495,4.84100163 37.6906873,5.05850465 37.9663791,5.19903226 C39.0219651,5.73722652 40.1640426,6.03938663 41.300317,6.3531485 C41.5616597,6.42533273 41.8446253,6.45605954 42.0795754,6.57845201 C42.4373863,6.76483225 42.5667659,7.15521315 42.6718594,7.50595805 C42.9701677,8.5015303 43.1907688,9.51559407 43.2031304,10.5635524 C43.2051178,10.7351236 43.3068328,10.8664648 43.4750063,10.9017056 C43.7249811,10.9541312 43.8425952,10.8827785 43.9164469,10.6685224 C43.947967,10.5771339 43.9616006,10.4791328 43.997493,10.3898034 C44.0156975,10.3445447 44.0654619,10.3118776 44.1009568,10.2735483 C44.136094,10.3085911 44.189237,10.3376153 44.2035065,10.3797063 C44.2986631,10.6608011 44.3778012,10.9473998 44.4778866,11.2266337 C44.5469685,11.4195473 44.5057101,11.5712807 44.3850751,11.7306562 C43.8843703,12.3920745 43.4109326,13.072103 43.0373417,13.8152482 C42.6496403,14.5863089 42.1664644,15.2834431 41.5337567,15.8815863 C40.9450897,16.4381137 40.2893679,16.8860677 39.5512487,17.2130548 C39.2474949,17.3476429 38.9546321,17.4760937 38.5827504,17.4164615 C38.1181764,17.3419015 37.6360737,17.3762711 37.1616025,17.3616205 C36.7929006,17.3502167 36.4243577,17.3343782 36.0556558,17.3229744 C35.5811449,17.3082841 35.1065943,17.2936335 34.6319641,17.2834176 C33.9124867,17.2679354 33.1929297,17.2563336 32.4733728,17.2430689 C32.4469006,17.2425541 32.42019,17.2390696 32.3939961,17.241287 C32.1980785,17.2581155 31.9957615,17.2524928 31.8090257,17.3034534 C31.7141474,17.3293098 31.6107232,17.4470299 31.5828202,17.5437639 C31.5680737,17.5946849 31.6952671,17.7343414 31.7793737,17.7573073 C32.1710897,17.86398 32.5663432,17.971801 32.9675589,18.0258897 C33.4086815,18.0853239 33.8579525,18.08374 34.3030102,18.1172781 C34.3480446,18.1206834 34.3886272,18.1832457 34.4312768,18.2183282 C34.4195909,18.2345231 34.4079447,18.2506784 34.3962588,18.2668733 C33.8260349,18.2951848 33.2560097,18.3303464 32.6854678,18.3499862 C32.0653204,18.3713286 31.4446961,18.3783372 30.8242705,18.3914436 C30.6453253,18.3952449 30.4430082,18.5868122 30.442412,18.761274 C30.4404246,19.3419948 30.4405836,19.9227551 30.442889,20.5034759 C30.4430877,20.5505956 30.4514348,20.6106634 30.4805303,20.6423009 C30.5646369,20.7336894 30.6657557,20.8094373 30.7516907,20.8994003 C30.828921,20.9802958 30.8956975,20.9843346 30.964064,20.8967869 C31.1012341,20.7210185 31.2802191,20.7413711 31.4684256,20.7808883 C31.6017402,20.8088433 31.7374397,20.8389366 31.8726621,20.8419459 C32.691589,20.8603583 33.5107145,20.8690695 34.3296413,20.8857 C34.6454784,20.892075 34.9624285,20.8966682 35.2764372,20.9269594 C35.8472574,20.982038 36.418952,21.0385025 36.9853999,21.1256937 C37.8242007,21.254778 38.6233728,21.5171437 39.376795,21.9114843 C39.461776,21.955951 39.5472341,22.0136826 39.6386146,22.029046 C39.8687155,22.0677317 40.1032283,22.079571 40.3344023,22.1132279 C40.942983,22.2019238 41.5025148,22.4335628 41.9869229,22.7988792 C42.3389704,23.0643334 42.6387494,23.3998733 42.9537916,23.7122493 C43.070412,23.8278312 43.1668803,23.8692886 43.2718148,23.7087648 C43.4541784,23.8904727 43.6334018,24.0576091 43.7985148,24.2375747 C43.9131478,24.3625805 44.0480921,24.4904769 44.1050906,24.6426855 C44.3220746,25.2221788 44.5010596,25.8156892 44.7128366,26.3972415 C45.0364644,27.2859035 45.3423645,28.1845437 45.9241948,28.955446 C45.6403946,28.9791643 45.5855424,29.0397071 45.5855026,29.3249992 C45.5853834,30.0377344 45.5860194,30.7504696 45.5846282,31.4632047 C45.5845089,31.5278261 45.5747707,31.5928433 45.5649927,31.6569499 C45.496825,32.1057355 45.1717663,32.3640624 44.8271517,32.6495524 C44.9430964,31.5429519 45.0557819,30.4673157 45.1676723,29.3992424 C45.0875007,29.3497469 45.0210422,29.3095962 44.9554978,29.2680992 C44.8379631,29.1936579 44.5328182,29.3296716 44.5143354,29.4690509 C44.4458895,29.9847148 44.4009743,30.5044571 44.3084411,31.0157258 C44.1981406,31.6250352 44.0598177,32.2301474 43.9077024,32.8305476 C43.8619922,33.011028 43.7629801,33.2048919 43.629427,33.3304521 C43.4094222,33.5373433 43.1400901,33.6918484 42.8939312,33.8716557 C42.6490043,34.0505918 42.4939476,34.2967626 42.4163597,34.5826882 C42.3864295,34.693083 42.4216064,34.8209793 42.4253427,34.9025479 C42.6328667,34.8627535 42.7888376,34.8328583 42.9448483,34.8029234 C42.9612642,34.8290966 42.9777198,34.8552698 42.9941755,34.8814034 C42.9456432,34.9409168 42.9080814,35.0169419 42.8467901,35.0571323 C42.5813931,35.2311188 42.3076093,35.3924742 42.0397479,35.5627783 C41.8669239,35.6726583 41.6977964,35.7568798 41.4901929,35.6402288 C41.4381231,35.6109671 41.362284,35.6137784 41.2982501,35.6172629 C40.6163345,35.6544835 39.9345778,35.6949906 39.2528211,35.7341119 C38.7873728,35.7607999 38.3218846,35.7871315 37.8563568,35.8128691 C37.1281348,35.8530991 36.399714,35.8904385 35.6716112,35.9332026 C34.8158381,35.9834504 33.9899554,35.8148885 33.197461,35.5273395 C32.3154939,35.207361 31.4446961,34.8496075 30.5925003,34.4576824 C29.7844246,34.0860702 29.0058817,33.6504702 28.2165274,33.2389448 C28.1082938,33.1825596 27.9909181,33.120314 27.915397,33.0296779 C27.7500456,32.8311811 27.6225739,32.6010072 27.4542414,32.405401 C27.2508115,32.1690105 27.0207106,31.955388 26.8029317,31.7311536 C26.7027669,31.6279653 26.584318,31.5355869 26.5091546,31.4164414 C26.2848968,31.0610637 26.0845274,30.6907186 25.8606273,30.3351429 C25.783556,30.2127109 25.6645507,30.116452 25.5700698,30.0140557 C25.3129404,30.2139779 25.2064954,30.4191665 25.2289927,30.7051317 C25.253557,31.0174285 25.2345972,31.3331702 25.2345972,31.6433287 C25.0386399,31.6858553 25.0009588,31.5583153 24.9562026,31.4411099 C24.9333476,31.3812798 24.9256762,31.2757158 24.8910955,31.2666482 C24.6235919,31.1964834 24.762034,31.0029758 24.7637431,30.8612207 C24.7650548,30.7540728 24.8248357,30.6481129 24.829526,30.5403711 C24.8368396,30.3716904 24.8521425,30.1920415 24.8038885,30.0353586 C24.7531702,29.8705188 24.2065167,29.6466407 24.0340107,29.6802185 C23.8370994,29.7185874 23.637684,29.7472948 23.4437538,29.7972259 C23.0455987,29.8997805 22.6422366,30.015996 22.3708376,30.3449232 C22.2511168,30.4900836 22.1876791,30.6944802 22.1406971,30.8823652 C22.0935958,31.070844 22.1290907,31.2574618 22.3144751,31.3868629 C22.3470684,31.4096308 22.3517189,31.4997918 22.34051,31.5527718 C22.2463073,31.9979145 22.2121639,32.4412754 22.3158662,32.8913676 C22.4516452,33.4806808 22.7445875,33.993573 23.0566883,34.5028223 C23.2057034,34.7459442 23.3787261,34.877721 23.670317,34.8230384 C23.835589,34.7920344 23.9399273,34.8604174 24.0059089,35.0187238 C24.0549976,35.1365626 24.1342947,35.2423246 24.2036549,35.3512147 C24.4342724,35.713403 24.6317005,36.102002 24.9825158,36.3719703 C25.7237354,36.9424356 26.5394028,37.381718 27.4275705,37.6718409 C28.2741619,37.9483821 29.1329162,38.1880591 30.00435,38.4493557 C30.0194542,38.5261332 29.9835618,38.5784796 29.8572826,38.5920216 C29.7847824,38.5997825 29.6687979,38.6584643 29.6608483,38.708237 C29.647811,38.789568 29.6836636,38.9047539 29.7415764,38.9647821 C29.8172962,39.0433809 29.9289879,39.1140605 30.0349162,39.1324332 C30.4253204,39.2000639 30.8187853,39.2540338 31.2129258,39.2958475 C31.9017576,39.3689029 32.5916626,39.4324947 33.2817266,39.4935524 L33.2817266,39.4935524 Z" id="Fill-1"></path>
                    </g>
                </g>
            </g>
        </g>
    </g>
</svg>